<svg viewBox="0 0 776.25 400" xmlns="http://www.w3.org/2000/svg"><g><g><g><g><g><line x1="58" y1="378" x2="53" y2="378" style="visibility: inherit;" fill="rgb(0, 0, 0)" stroke="rgb(204, 204, 204)" stroke-width="1px"></line><line x1="58" y1="330.74999999999994" x2="53" y2="330.74999999999994" style="visibility: inherit;" fill="rgb(0, 0, 0)" stroke="rgb(204, 204, 204)" stroke-width="1px"></line><line x1="58" y1="283.4999999999999" x2="53" y2="283.4999999999999" style="visibility: inherit;" fill="rgb(0, 0, 0)" stroke="rgb(204, 204, 204)" stroke-width="1px"></line><line x1="58" y1="236.2499999999998" x2="53" y2="236.2499999999998" style="visibility: inherit;" fill="rgb(0, 0, 0)" stroke="rgb(204, 204, 204)" stroke-width="1px"></line><line x1="58" y1="189.00000000000028" x2="53" y2="189.00000000000028" style="visibility: inherit;" fill="rgb(0, 0, 0)" stroke="rgb(204, 204, 204)" stroke-width="1px"></line><line x1="58" y1="141.7500000000002" x2="53" y2="141.7500000000002" style="visibility: inherit;" fill="rgb(0, 0, 0)" stroke="rgb(204, 204, 204)" stroke-width="1px"></line><line x1="58" y1="94.50000000000011" x2="53" y2="94.50000000000011" style="visibility: inherit;" fill="rgb(0, 0, 0)" stroke="rgb(204, 204, 204)" stroke-width="1px"></line><line x1="58" y1="47.25000000000006" x2="53" y2="47.25000000000006" style="visibility: inherit;" fill="rgb(0, 0, 0)" stroke="rgb(204, 204, 204)" stroke-width="1px"></line><line x1="58" y1="0" x2="53" y2="0" style="visibility: inherit;" fill="rgb(0, 0, 0)" stroke="rgb(204, 204, 204)" stroke-width="1px"></line></g><g transform="translate(48, 0)"><text x="0" y="378" dx="0em" dy="0.3em" style="text-anchor: end; visibility: hidden; font-family: &quot;Helvetica Neue&quot;, sans-serif; font-size: 12px; font-weight: 200;" fill="rgb(50, 49, 63)" stroke="none" stroke-width="1px">1.06</text><text x="0" y="330.74999999999994" dx="0em" dy="0.3em" style="text-anchor: end; visibility: inherit; font-family: &quot;Helvetica Neue&quot;, sans-serif; font-size: 12px; font-weight: 200;" fill="rgb(50, 49, 63)" stroke="none" stroke-width="1px">1.08</text><text x="0" y="283.4999999999999" dx="0em" dy="0.3em" style="text-anchor: end; visibility: inherit; font-family: &quot;Helvetica Neue&quot;, sans-serif; font-size: 12px; font-weight: 200;" fill="rgb(50, 49, 63)" stroke="none" stroke-width="1px">1.1</text><text x="0" y="236.2499999999998" dx="0em" dy="0.3em" style="text-anchor: end; visibility: inherit; font-family: &quot;Helvetica Neue&quot;, sans-serif; font-size: 12px; font-weight: 200;" fill="rgb(50, 49, 63)" stroke="none" stroke-width="1px">1.12</text><text x="0" y="189.00000000000028" dx="0em" dy="0.3em" style="text-anchor: end; visibility: inherit; font-family: &quot;Helvetica Neue&quot;, sans-serif; font-size: 12px; font-weight: 200;" fill="rgb(50, 49, 63)" stroke="none" stroke-width="1px">1.14</text><text x="0" y="141.7500000000002" dx="0em" dy="0.3em" style="text-anchor: end; visibility: inherit; font-family: &quot;Helvetica Neue&quot;, sans-serif; font-size: 12px; font-weight: 200;" fill="rgb(50, 49, 63)" stroke="none" stroke-width="1px">1.16</text><text x="0" y="94.50000000000011" dx="0em" dy="0.3em" style="text-anchor: end; visibility: inherit; font-family: &quot;Helvetica Neue&quot;, sans-serif; font-size: 12px; font-weight: 200;" fill="rgb(50, 49, 63)" stroke="none" stroke-width="1px">1.18</text><text x="0" y="47.25000000000006" dx="0em" dy="0.3em" style="text-anchor: end; visibility: inherit; font-family: &quot;Helvetica Neue&quot;, sans-serif; font-size: 12px; font-weight: 200;" fill="rgb(50, 49, 63)" stroke="none" stroke-width="1px">1.2</text><text x="0" y="0" dx="0em" dy="0.3em" style="text-anchor: end; visibility: hidden; font-family: &quot;Helvetica Neue&quot;, sans-serif; font-size: 12px; font-weight: 200;" fill="rgb(50, 49, 63)" stroke="none" stroke-width="1px">1.22</text></g><line x1="58" y1="0" x2="58" y2="378" fill="rgb(0, 0, 0)" stroke="rgb(204, 204, 204)" stroke-width="1px"></line></g></g><g transform="translate(58, 0)" clip-path="url(#clip_0)"><clipPath id="clip_0"><rect width="718" height="378"></rect></clipPath><g><g><g><line x1="0" y1="0" x2="0" y2="378" fill="rgb(0, 0, 0)" stroke="rgb(60, 60, 60)" stroke-width="1px" opacity="0.25"></line><line x1="59.854166666666664" y1="0" x2="59.854166666666664" y2="378" fill="rgb(0, 0, 0)" stroke="rgb(60, 60, 60)" stroke-width="1px" opacity="0.25"></line><line x1="119.70833333333333" y1="0" x2="119.70833333333333" y2="378" fill="rgb(0, 0, 0)" stroke="rgb(60, 60, 60)" stroke-width="1px" opacity="0.25"></line><line x1="179.5625" y1="0" x2="179.5625" y2="378" fill="rgb(0, 0, 0)" stroke="rgb(60, 60, 60)" stroke-width="1px" opacity="0.25"></line><line x1="239.41666666666666" y1="0" x2="239.41666666666666" y2="378" fill="rgb(0, 0, 0)" stroke="rgb(60, 60, 60)" stroke-width="1px" opacity="0.25"></line><line x1="299.27083333333337" y1="0" x2="299.27083333333337" y2="378" fill="rgb(0, 0, 0)" stroke="rgb(60, 60, 60)" stroke-width="1px" opacity="0.25"></line><line x1="359.125" y1="0" x2="359.125" y2="378" fill="rgb(0, 0, 0)" stroke="rgb(60, 60, 60)" stroke-width="1px" opacity="0.25"></line><line x1="418.9791666666667" y1="0" x2="418.9791666666667" y2="378" fill="rgb(0, 0, 0)" stroke="rgb(60, 60, 60)" stroke-width="1px" opacity="0.25"></line><line x1="478.8333333333333" y1="0" x2="478.8333333333333" y2="378" fill="rgb(0, 0, 0)" stroke="rgb(60, 60, 60)" stroke-width="1px" opacity="0.25"></line><line x1="538.6875" y1="0" x2="538.6875" y2="378" fill="rgb(0, 0, 0)" stroke="rgb(60, 60, 60)" stroke-width="1px" opacity="0.25"></line><line x1="598.5416666666667" y1="0" x2="598.5416666666667" y2="378" fill="rgb(0, 0, 0)" stroke="rgb(60, 60, 60)" stroke-width="1px" opacity="0.25"></line><line x1="658.3958333333333" y1="0" x2="658.3958333333333" y2="378" fill="rgb(0, 0, 0)" stroke="rgb(60, 60, 60)" stroke-width="1px" opacity="0.25"></line><line x1="718.25" y1="0" x2="718.25" y2="378" fill="rgb(0, 0, 0)" stroke="rgb(60, 60, 60)" stroke-width="1px" opacity="0.25"></line></g><g><line x1="0" y1="378" x2="718.25" y2="378" fill="rgb(0, 0, 0)" stroke="rgb(60, 60, 60)" stroke-width="1px" opacity="0.25"></line><line x1="0" y1="330.74999999999994" x2="718.25" y2="330.74999999999994" fill="rgb(0, 0, 0)" stroke="rgb(60, 60, 60)" stroke-width="1px" opacity="0.25"></line><line x1="0" y1="283.4999999999999" x2="718.25" y2="283.4999999999999" fill="rgb(0, 0, 0)" stroke="rgb(60, 60, 60)" stroke-width="1px" opacity="0.25"></line><line x1="0" y1="236.2499999999998" x2="718.25" y2="236.2499999999998" fill="rgb(0, 0, 0)" stroke="rgb(60, 60, 60)" stroke-width="1px" opacity="0.25"></line><line x1="0" y1="189.00000000000028" x2="718.25" y2="189.00000000000028" fill="rgb(0, 0, 0)" stroke="rgb(60, 60, 60)" stroke-width="1px" opacity="0.25"></line><line x1="0" y1="141.7500000000002" x2="718.25" y2="141.7500000000002" fill="rgb(0, 0, 0)" stroke="rgb(60, 60, 60)" stroke-width="1px" opacity="0.25"></line><line x1="0" y1="94.50000000000011" x2="718.25" y2="94.50000000000011" fill="rgb(0, 0, 0)" stroke="rgb(60, 60, 60)" stroke-width="1px" opacity="0.25"></line><line x1="0" y1="47.25000000000006" x2="718.25" y2="47.25000000000006" fill="rgb(0, 0, 0)" stroke="rgb(60, 60, 60)" stroke-width="1px" opacity="0.25"></line><line x1="0" y1="0" x2="718.25" y2="0" fill="rgb(0, 0, 0)" stroke="rgb(60, 60, 60)" stroke-width="1px" opacity="0.25"></line></g></g></g><g><g><line x1="0" y1="2882.2500000000014" x2="718.25" y2="2882.2500000000014" fill="rgb(0, 0, 0)" stroke="rgb(153, 153, 153)" stroke-width="1.5px"></line></g></g><g><g><line x1="59.854166666666664" y1="0" x2="59.854166666666664" y2="378" fill="rgb(0, 0, 0)" stroke="rgb(153, 153, 153)" stroke-width="1.5px"></line></g></g><g><g><g><g><g><path stroke="rgb(255, 112, 67)" stroke-width="2px" d="M69.50026416666667,-43.419360045343694L71.60952499999999,0.520530253296954L71.86210958333334,19.207436327607695L72.14761395833334,12.061744412028816L72.17095708333333,12.786868293739474L72.336753125,39.70005470826328L72.61447645833334,40.38537482692021L73.21960208333333,7.215239302790053L74.04020270833334,27.02733340051202L74.30715229166667,15.37033870534134L74.41189708333333,15.14703628843779L74.65430645833334,52.74701825222019L74.969139375,65.51882177083178L77.70806604166667,83.38340110210999L78.17672416666667,51.11868750939681L78.23298708333333,67.4261830242666L78.96919333333334,43.46035700274348L79.267865625,100.6063652637539L79.71437770833333,125.17800529330984L80.054349375,154.18091591383973L80.075896875,103.79621809004425L80.10821812500001,101.6487234143973L80.51881770833333,94.85466000772658L81.37353520833334,81.6859035466025L81.778149375,54.27161127046196L81.796105625,75.19244095521486L82.45749416666666,53.169660593255L82.52453083333333,63.364676515437L83.02969999999999,116.1777272973676L83.101525,31.657232135603238L84.55657979166666,57.737179953487214L85.97392645833332,99.15649950478593L86.18581020833334,139.8733200074991L86.30970833333333,103.04339455597227L87.01119916666667,76.12626606833612L87.58699625,122.9432595886307L87.63428104166667,130.2327960442102L88.43093999999999,128.69089520636678L88.69250270833334,147.34244192042732L91.52061208333332,73.35052078006225L92.09281791666666,80.60925810955592L93.68434020833332,133.6195735539397L95.01609541666667,147.93653159173834L95.873805625,138.13490112324024L96.05097395833334,112.80453326522928L97.04694729166665,77.01518706214193L97.963913125,75.60526451904633L98.47267354166667,137.6013117160744L99.14423729166667,129.55499312438667L99.82896895833333,98.8563787052517L99.96902770833333,91.38829931673337L100.21981666666667,151.2606894317687L101.26427187499999,96.26217852493573L102.14472666666667,112.78129061734973L102.60680083333332,61.39331164763115L102.89290375,71.50541583779898L102.923429375,70.83480300953119L102.95634916666666,122.79784027606328L103.55309520833333,154.541292237461L106.66491333333335,167.99741988612416L107.091075,235.8698950364182L107.97093124999999,226.16402581655927L108.10440604166668,169.2772527892822L110.49139020833333,187.05874364134277L110.78347854166667,203.9971032414233L111.7956125,217.78393358429665L111.84648854166667,215.16836604142426L111.93208,165.57582190432657L112.16251854166667,129.05887564896648L112.60783354166668,154.2638174586242L112.92925041666666,166.68581952409428L113.33206895833334,210.30675860498224L113.34164562500001,180.6080499664181L113.70675604166668,158.79719887824245L113.86477104166667,128.4972309985839L114.70871479166667,117.53130890840794L114.99182499999999,105.85309089371265L115.80045479166668,130.7353453943056L116.05782770833333,95.07458826952688L116.94127520833334,75.39462438257652L117.00292499999999,147.0897296370989L117.49432770833333,202.71680687081366L118.79495874999999,239.5038413894864L119.6389025,248.41934408501896L120.22188208333334,274.9717010841143L120.50738645833334,181.29353881987183L120.87129979166666,214.04268279738577L121.504556875,198.8938385192593L122.30241291666667,156.65419878626088L122.63879333333333,144.48898760118624L122.6555525,206.1712127425582L123.16431291666667,178.65371214737382L124.39910437500001,190.78484279745751L124.84741208333334,143.59916965266444L126.485620625,163.99375786841162L126.71007374999999,158.50696178949028L127.43071791666668,240.60129688189147L128.74391833333334,240.34035521749104L128.99650291666666,211.29308391811526L129.710563125,210.52516587497044L129.911673125,133.81436796141412L130.263615625,108.826809496598L130.59580624999998,157.70265460665004L132.39262833333333,117.6808009425103L132.47642416666665,162.68486418004628L132.51892062500002,119.30916846797345L132.777490625,187.9031855166286L132.99895104166666,184.2127498805721L133.25572541666665,206.04625184656368L134.84545208333333,238.92401279998526L137.70707979166667,185.730976378874L138.67013333333333,167.16428348777055L138.7874475,129.92577322338394L140.28380166666668,135.64086933144554L140.29158270833332,141.5100988340891L140.34245875000002,187.25727754786732L140.58367104166666,205.06160570356334L141.02539479166666,285.7020287345234L141.658651875,181.53560728015802L141.66164458333333,217.38072892536064L141.88729479166668,162.8015519649349L143.292670625,162.6112620753384L143.32020354166667,148.10986382498385L143.63503645833333,185.21657363613903L143.68291979166668,196.44107782864847L144.09890625,207.58771376624284L144.24195770833333,198.33611572274285L144.38141791666666,221.85464315705738L145.38098250000002,217.12582157309797L146.1794370833333,254.44451278600675L146.21475104166666,185.70368510576225L147.427995,134.75325039680052L147.657835,165.59846815857398L148.133675625,175.2192096793242L148.841151875,168.49857409498654L150.08911125,124.22673287213786L150.151958125,121.23453227413285L150.25909708333333,150.81548912365798L150.39915583333334,200.61175100230903L151.29098291666668,237.65625260009608L152.741249375,190.90306619247332L153.61691583333334,225.60708834791504L153.90301875,254.7006939534209L154.19809979166666,288.4287626197257L155.77166583333334,249.01066285671695L157.29016604166665,246.47070840777113L157.59362666666667,286.07311093676753L158.38729291666667,245.75765197198788L158.89066645833333,233.07473140192772L158.97087104166667,255.83752001066642L159.092375,266.32300358259477L159.95068375,266.54028120782243L160.0476475,261.1845701166765L160.19608583333334,177.13466379814005L161.20103729166667,185.5483356581488L161.58410395833334,212.76367663540594L161.71877583333332,266.78120626925346L162.599230625,283.7198787803588L162.60521604166667,271.0480261012992L163.38511583333332,251.9677367547207L163.45753937499998,219.87030882472095L163.73466416666665,236.66761304637365L164.387673125,194.718774257306L166.26110854166666,217.35086127412544L166.50950333333333,164.85599188978824L166.790219375,198.34890885934408L166.81416104166667,240.14451317659137L167.11043916666668,204.6236930887173L167.78020729166667,249.14210528136937L168.21953687500002,261.05643543005965L168.25485083333334,232.0590376639428L168.840823125,235.09941793585187L169.35676604166667,208.74028659525126L169.54949645833332,208.30923450388082L169.74521958333332,218.23362586735232L170.61909041666667,226.5436049809365L171.32177833333333,255.19872980775312L171.83532708333334,266.54568875707315L171.86525416666666,324.28610044048503L172.345883125,335.9597699721237L173.17127208333332,293.96801133630146L173.77939041666664,293.5518360357132L174.902853125,238.26032117728275L176.74755854166668,186.91170275046753L176.80920833333334,205.2866221894881L176.94028895833333,230.5010925430098L177.60287458333335,252.15563756811855L178.874775625,287.2532054578558L179.13573979166665,279.0457934853614L179.68879229166666,239.3043152759777L180.401056875,275.6410210532133L180.71169999999998,300.8600286008229L183.21958958333332,271.5783004618471L183.78221875000003,230.73080605606944L184.11680354166668,196.82706767523692L184.79854250000002,189.45690475824134L184.90987124999998,225.95457701040888L185.54073416666668,238.80096633525864L185.66223812500002,199.3162979083787L187.40279729166667,259.3548998712024L187.86247729166666,244.84326373806744L188.73814374999998,247.7477419094514L189.11103520833333,279.6417197058363L189.152933125,236.37939434467359L189.17029083333333,205.6768387867128L190.25664395833334,174.5415381618214L191.24244208333334,189.87732877897446L191.45013604166667,179.46189889053835L191.691946875,151.66959948981008L192.29348124999999,210.8150598504793L193.65037520833332,227.53291866175266L194.43326770833335,242.97783914203626L195.27242312500002,227.0630652129363L195.33108020833333,270.54898862956213L195.33826270833333,324.46611695836935L195.969125625,275.63001476139425L196.42401729166664,301.7191614294686L196.67061645833334,278.21645867732997L196.67241208333334,244.65992746298235L197.09378541666666,254.73272479501225L198.131058125,317.829628234666L198.75174583333333,279.92235546443567L199.79859520833332,291.98443346699287L200.461779375,291.82996819901615L200.64014479166667,260.4443748860847L202.33521479166666,230.90694942887353L202.67518645833331,296.1549554038988L203.1079320833333,227.79572011047281L203.56042958333333,287.78330841668696L204.42053395833335,220.6299634159103L204.47919104166667,175.38506435039653L204.73955666666666,186.18149584938882L204.90535270833334,194.83400398737095L206.43702083333332,241.0988246097918L207.12534374999998,230.7442403492187L207.99741895833333,200.51031250100442L208.8671,255.47000588381985L209.29565583333334,231.5587597215455L209.5039483333333,241.93073532130012L210.00971604166665,279.63530293193907L210.27905979166667,260.2794500296558L210.56456416666666,242.9251526895316L210.72617041666663,269.5779294671508L211.54796812499998,255.94259067189023L212.13633458333334,245.18727140314138L212.24347354166665,227.80968928746435L213.64645520833335,200.08327811009897L214.40181479166668,209.810772615953L214.48740625,232.94273776905763L214.94289645833334,247.8825427716789L216.04541020833332,284.5997896209848L216.97853666666666,244.62311940285485L217.03001125,208.38072026308154L217.182639375,217.32448869070896L217.83744395833332,247.2771060295193L217.9960575,264.8607002632191L218.44376666666665,269.46346600868503L218.63051166666668,273.530883813013L218.82743187499997,244.4076030636488L218.88309625,270.2071717729962L220.20168354166668,298.0110143274542L220.67453145833335,262.24950856271266L221.81535187499998,298.72609895648304L221.97576104166666,292.23831049312196L222.0900825,277.38542327707455L222.70119354166667,243.44708760634333L222.86339833333332,260.56366565260475L223.10700479166667,211.46875242253046L223.21893208333333,243.075806402325L224.69373875,235.23532399127447L224.76795791666666,250.88220961445302L225.912968125,225.6310760471444L226.774868125,216.566687577559L226.87602166666667,241.92450785255068L227.1351902083333,198.2528889633158L227.98691499999998,259.70143978935107L228.21017104166668,301.95458453382037L229.03196875,268.9504169552623L229.66402875,275.0565910058677L230.021358125,232.99948931440494L230.3703079166667,246.73272564831228L230.7599585416667,227.5877908398081L231.72121645833334,217.3895777421814L232.68905833333335,256.22237548575555L233.05057749999997,237.72595816460705L233.91966000000002,211.81235228542945L235.7212704166667,272.6548265133173L235.82601520833333,273.1999669738928L236.66816333333333,265.9534049432467L236.76692270833334,270.6210695982571L237.54981520833334,242.85592792514518L238.42967145833336,249.5623810415478L238.91868,262.75731561929047L239.10841770833332,338.76724840611274L239.915251875,251.80420676118146L240.51139937499997,251.94728889015923L240.87172145833333,244.30887509553224L240.90942958333332,204.43880840044363L241.82459979166669,264.2620554441281L244.451000625,272.40883572543055L244.71675312499997,228.53909151342148L244.80892854166666,241.1459897791541L245.25065229166668,256.84410996646864L245.35180583333332,270.7196386540602L245.368565,275.2927171161576L246.38309312500002,259.46552833144665L247.051065625,243.643874193578L247.97042562500002,233.24492806515042L248.49594520833335,281.71988843870713L250.1940079166667,231.7128132760083L250.43522020833333,248.33577855703555L250.68600916666668,243.49628060029343L250.85539645833333,291.12163384536746L251.04932395833333,306.2261644827115L251.35218604166667,335.8973568813081L251.55628875000002,289.02915373659545L251.90104875,316.66955482492676L252.21528312499998,270.4758941860783L252.8168175,249.334451921689L253.2124535416667,261.94407821172945L253.96362333333332,286.4254572658209L254.194061875,301.6188564937395L254.4173179166667,169.65418871886035L256.8043020833333,244.04196608451898L257.401048125,250.50505478613297L257.5710339583333,268.2803180422349L257.95290354166667,236.03783506190518L258.3533279166667,345.45402063152665L258.539474375,341.74071250689934L258.555635,313.32388557394074L259.322366875,345.34443856119975L260.03522999999996,282.159373789071L260.05258770833336,285.9781910592552L261.19879499999996,294.993387819185L261.39751083333334,296.63584756902105L262.5850175,277.32151801616715L262.6017766666667,278.7464566184924L262.69395208333333,234.59900042735595L264.4123652083333,273.394501717824L265.19286354166667,315.653683037721L266.05356645833336,276.2035405225533L266.07152270833336,324.23278045576694L266.18404854166664,295.45445094062023L266.51803479166665,338.99708517523504L267.614563125,310.98376805860926L268.25679833333334,295.9684214549012L268.95709208333335,279.4436960194556L270.9167175,241.57565088117414L270.91971020833336,200.10726103213008L271.26207604166666,231.68667324201206L274.18176229166664,260.6131036985873L274.22904708333334,243.6314938252545L274.2493975,228.40154136332154L274.61510645833334,231.58676999278228L274.95926791666665,235.4800328103745L275.20347291666667,251.46443789530065L275.59791187499997,270.7442337830563L277.92324625,289.73559146879325L278.18421041666664,278.0139432535065L278.20096958333335,288.2620032182629L280.3066391666667,262.8641183347281L281.81556270833335,233.35577258889558L281.9879427083333,216.62385984316268L282.3482647916667,221.57203786405793L283.94038562500003,295.737162809568L284.220503125,273.5392589694244L284.3378172916667,251.8192103937855L284.63589104166664,281.91562162849823L285.67316375,288.6507375896782L285.7264339583333,255.77143611078344L287.1407879166667,285.46158758142496L287.1970508333334,297.87172467314537L287.528044375,288.94496473552795L287.6872564583333,310.38742766906023L288.28879083333334,278.47331327276936L289.04235479166664,203.10220853136508L289.16745000000003,219.94277775076966L290.59616895833335,212.82881798617828L290.74400875000003,158.62405637665273L291.0534547916667,206.02733197071356L291.87644958333334,227.93239454184882L291.91415770833333,206.5416101441078L292.07755958333337,205.67683519275755L292.58991125,220.79710486740942L293.054978125,256.7767208052341L294.0162360416667,215.71760425762307L294.627945625,266.40516170141655L296.226051875,194.5187217728947L296.64084125,141.46958310226535L297.39081395833335,176.6018127371067L297.78046458333336,250.95678993279927L298.03484479166667,287.2778558267071L298.19106416666665,276.09567522602754L298.84108041666667,308.54537393806856L299.3893445833333,325.9626595387369L301.1322979166667,305.9808966284699L301.31066333333337,302.9899795750202L301.785306875,272.59514190551147L302.77050645833333,299.16599465487286L303.77007104166665,297.7184095208517L304.0286410416667,236.2272301092546L306.00861687500003,273.73190970270645L306.4988225,275.5139286222984L307.41698541666665,259.3781317056973L308.258535,228.39716739545807L308.33036,233.80475718432993L308.62963083333335,224.89328767451266L308.910346875,299.5498183345354L309.5430054166667,287.9190015420648L309.78361916666665,223.89776313455883L309.92966333333334,287.59913127512914L310.23072979166665,295.72341051632856L310.7550522916667,266.8485574181956L311.1626591666667,249.02065090275312L312.1580339583333,241.43706653080278L312.74161208333334,234.7465131137483L313.316810625,219.95547830186584L313.487395,192.54981328917933L314.2559225,234.1562784545029L314.60427375,262.28243370249305L315.177078125,268.13899531003506L315.4649766666667,272.2228426816265L316.18502229166666,333.13194486392706L316.3735629166667,283.1690844112228L317.30549229166667,270.1608194478506L317.6646172916667,261.07702612687103L318.4672616666667,226.81659057026465L318.58577291666666,201.62770902088522L320.16592291666666,199.99384831769015L320.53223041666666,219.901046844618L320.621413125,234.96787567871613L320.94402708333337,194.7053717609512L322.1997675,227.83304652191794L322.50921354166667,259.8072079695318L324.55921875,276.2575092480813L324.582561875,232.42228024996749L324.79025583333333,282.6665655243246L325.04044625,298.96675836252246L325.51030145833334,275.78793797020376L326.13039062499996,279.35027538015987L326.41529645833333,270.39543463155337L327.703358125,262.3885955653476L328.23665875,215.31108633529468L328.3839,217.01850402266587L328.597579375,268.4905586952614L328.73165270833334,261.130088252702L328.8573464583333,290.1402511137005L329.45648666666665,332.5985243521494L329.4762385416667,324.8794458509899L330.72300083333334,310.53530148276207L331.603455625,289.9211551881342L332.594640625,275.29916122773346L334.2549952083333,313.32305562030734L335.1719610416667,336.6414007874217L335.40239958333336,351.20907746147424L335.78426916666666,307.88483611578556L337.17827270833334,320.82264099022666L337.89053729166665,301.2363835424241L338.9361895833333,297.08069328368083L339.40963604166666,321.05820374429464L340.33079166666664,324.2538956447854L342.4616,359.71119725968924L342.6603158333333,277.71542422930315L342.75368833333334,312.8903854904172L342.81713375000004,282.7682009588236L344.449356875,251.5144024879071L344.95452604166667,213.2077414387663L345.02275979166666,218.80319148267486L345.156833125,231.42784234264582L345.296891875,242.50647223221716L345.43156375,290.5582777275293L345.43754916666666,301.55541229329384L346.24917166666665,261.3656144862289L346.39820854166663,267.0173035815304L346.57896812499996,236.02522451609042L346.65258875,233.83898081141484L347.031465625,257.30431202505713L347.3971745833333,278.32472436103035L347.839496875,268.8428329019119L347.936460625,295.26289421250647L350.11096249999997,261.3657741661677L350.1283202083333,301.8435552904493L350.19415979166666,256.51441166338253L351.0602495833333,253.2337863060054L352.20166854166666,296.2692949302326L353.44783229166666,289.03241691156234L355.6558525,254.53269065120207L358.4558304166667,241.97066631733432L358.59708625,228.39300972711519L359.5314097916667,234.93014220292258L359.95577583333335,275.67050402101825L360.1149879166667,322.15895479164703L361.590393125,329.5053976132999L363.94146479166665,245.15887044397147L364.35146583333335,222.57592383937342L364.9709564583334,259.06550626704853L364.971555,325.25117400139465L365.40609625,297.89192656785235L365.82208270833337,218.77158846920727L366.19257999999996,282.0473184017299L366.8234429166667,256.1435876028514L367.7799125,254.48805714468818L368.4185564583333,248.58769648564268L368.5119289583333,244.5092251139426L369.0751566666667,289.55925742611566L369.26309875,272.23753991022886L370.14295500000003,269.2291243451547L370.40152500000005,301.0955399261541L370.50148145833333,300.0797189704556L373.222451875,262.4742653269754L373.45109479166666,299.0922291695587L374.21064416666667,338.4986159813115L374.4913602083334,294.11965870927054L375.89314479166666,257.85889463466594L376.40190520833335,271.41232312227623L376.479715625,266.0658132106386L376.65927812499996,217.0397691410971L376.7299060416667,235.40243917001456L376.81968729166664,205.00358508404L377.3242579166667,210.98878818974438L377.399075625,266.5069830550286L378.17298999999997,260.8445446809254L378.677560625,250.16847297669187L378.821210625,275.70935552788205L379.1348464583333,219.96665435714974L379.62744625000005,265.8039188485352L379.89080458333336,265.78644290572464L380.810763125,229.69462417963769L381.05556666666666,314.94645659568073L381.2482970833333,279.5240083243977L383.0277614583333,280.20786555448353L384.05246479166664,259.21595439815053L384.5755902083333,290.9342426628083L385.32795708333333,262.2399786096936L386.1425722916666,285.8353814710457L387.4036995833334,260.7798807400033L387.57607958333335,302.9256384955382L388.1195554166667,254.37832163492038L388.73066645833336,289.6294173641159L388.88928000000004,273.3424021865816L391.0308620833334,289.1168016472991L391.8490685416667,279.841876904937L392.9683414583334,237.81245679901397L393.20117416666665,249.89695605782464L393.26162687499993,228.62983000962623L393.53097062499995,220.2813751500172L393.988855,219.8355283380342L394.0271616666667,273.2557435298438L394.39047645833335,243.84969865467986L394.5287395833333,243.35892176143423L394.5909879166666,270.6789185971742L394.66580562499996,296.64685349289897L395.00517874999997,280.0038503684061L396.5446279166667,256.8135656999028L397.1443666666667,283.8169118455932L397.7638572916667,240.93738121341968L397.99309875,261.3600140008408L398.09664645833334,255.47987589794877L398.23730375,264.5498659226801L398.6060054166666,235.70508554062306L398.9651304166667,251.4951530604424L399.60197875000006,267.5820243304288L399.68757020833334,286.3083284107038L400.3818785416667,340.447020376157L400.5404920833334,325.8729168679899L401.16477104166665,305.9781953875172L402.88557833333334,254.185710643765L403.44461625,285.09267981948636L404.1233625,298.6180673843755L405.4856433333333,306.3533221010049L405.70710375,294.0562284424115L406.8676760416667,280.40118472780046L407.807985,234.80867517593637L408.1024675,209.5498629605959L408.879973125,265.0362041351909L409.1720614583333,210.49094755397516L409.8220777083333,162.5009192403931L410.12075,209.44190083603755L410.370341875,231.20150341189358L410.4523420833333,275.0071927165773L411.0682414583334,335.2947348747129L411.4417314583333,282.82394294699867L412.11628791666664,302.8870984838058L412.51431812500005,275.49482949529005L412.53526708333334,283.1120755192873L412.58075625,316.54935969813073L412.84650874999994,260.48684035482074L413.28045145833335,267.9125057383901L413.29481645833334,224.26471788433392L415.14909854166666,249.2071136399936L416.77413916666666,249.68022173433494L418.86005687499994,258.39716094606484L418.87083062500005,226.43962837382168L419.168904375,237.86363125517366L419.8255045833333,246.45389964982522L421.4451583333333,188.68494996312063L421.4810708333333,263.60702117015603L423.0480529166666,278.430827639876L424.2241872916667,302.83063997172053L424.4474433333333,271.70770176257315L425.2399125,233.97342665198798L425.41767937500003,300.70335249425983L426.426820625,266.64326694203606L427.90701416666667,297.6949427759241L428.70965854166667,257.3989695689435L429.40875520833333,200.6974019277904L432.79949374999995,212.3647108119021L432.9904285416667,245.35364156015473L433.084998125,303.8503265920151L433.70149604166664,317.0822079743667L434.20965791666663,308.33915008102184L434.496359375,276.6721832573074L435.00930958333333,241.40223826287118L437.5034327083333,275.32229798625644L437.72728729166664,273.4845527505323L438.54669083333334,276.0937020120292L438.80107104166666,246.58471115453656L440.38900208333337,230.37669737353056L442.6832122916666,219.23021103867327L442.7065554166666,227.95975321488632L443.840791875,270.7323704836192L444.01377041666666,301.5473271058454L444.6799472916666,214.8716653017077L444.76972854166667,224.61576229500028L445.984768125,201.64316135744605L446.18827229166664,252.57501722634044L446.649149375,242.8125469998135L446.663514375,189.82407125923737L447.31652333333335,203.95096204932733L447.570305,270.7704211846364L448.34302229166667,256.68309461923695L449.2791414583333,293.1966185322541L450.08238437499995,280.4867593140091L451.1124745833334,229.9530901962928L451.1519783333334,241.23195498314L451.80738145833334,287.17596741394084L452.48193791666665,304.77339253351624L452.86500458333336,349.19358306840365L453.605400625,315.7153617007453L453.9363941666667,289.02337116378095L454.05490541666666,283.44556943403194L454.395475625,274.32937633887815L454.96049895833335,349.46339950499487L456.3856266666667,333.07223373375854L456.8345329166667,271.5599871738111L456.973993125,286.9332166590307L457.9424335416667,255.78183522689426L458.05735354166666,275.97052189629153L458.3931354166667,281.4178436811025L459.19458270833337,274.51954878659603L459.27239312499995,327.4730000572892L459.34361958333335,287.2465395973617L459.38072916666664,282.2520602015553L459.4423789583333,304.00721577810634L459.72070083333335,234.77838165764405L459.93857,239.79011053564787L460.41680479166666,230.575447909371L462.33932062499997,246.62743048211098L464.7316916666667,234.02389049732793L465.30150333333336,237.0846982252847L466.0915783333333,260.83304952694465L467.70704229166665,243.5822030014602L467.9979335416667,273.4129134718659L468.017086875,247.82083334351103L469.5044629166667,223.68193546429012L469.6852225,230.1250895470065L470.037165,284.34452098665736L470.22391000000005,244.5946648481973L470.62433437500005,234.13601226589014L471.18516791666667,210.59993666995106L471.47007375,262.0450247918879L471.76575333333335,282.6258651015348L472.0907614583333,315.20173895342276L472.2595502083333,296.89423985471205L474.1443579166667,267.29150301927234L474.17548208333335,232.80204981991L474.21498583333334,227.60511943357218L474.8985204166667,233.44815178309082L475.06431645833334,284.5444754814755L475.27021479166666,312.15805366370967L475.56409875,304.49920665463117L475.67842020833336,304.3741860106012L475.77837666666665,268.7610521623146L476.887474375,297.53098077229583L477.5835783333333,316.18521362931665L477.74698020833335,337.83012875551657L478.5993035416667,340.6809187688511L479.04880833333334,323.2033576463509L479.17689624999997,295.62953485815854L481.18260937499997,241.7556025848933L481.49983645833333,253.65241555369772L481.5321577083334,243.97572429178257L482.44194104166667,281.2369794559366L483.39003104166665,287.79508157443337L484.64218020833334,309.99354927463105L484.74333375000003,342.61624677612014L484.90853125,337.4769999243833L485.92485500000004,317.62091756212845L486.6939810416667,340.72268071382155L487.23566125,353.7308444178638L487.69414416666666,345.0126216409526L488.08918166666666,308.05742633330357L488.4147883333333,309.22258529655636L488.88045375,348.58738122935597L489.37664479166665,294.70058383080635L489.75731729166665,327.92600134332935L490.1840775,306.61174716544133L490.24213604166664,290.04560903305986L490.4384577083333,320.8464655852029L490.7880060416667,289.5712888226334L492.87512083333337,265.7363571158305L493.26237729166667,288.15107904858934L493.7525829166667,224.11541597239702L494.97779770833336,241.56067144985508L495.5134925,283.0930676228736L495.5571860416666,258.26931909125693L495.94743520833333,264.0078769886591L496.26526083333334,257.1049805381356L496.2748375,261.2372512995279L496.325115,208.7823874818728L497.6496877083333,239.21859225436705L498.0052214583333,294.2970456171315L498.9191945833333,289.23368262578754L499.1987135416667,206.63554114895908L500.2419716666667,277.23796788929604L500.30721270833334,270.54533474492246L500.9332872916667,203.3785222580865L501.0093020833333,281.7851737148064L502.1567064583333,272.2891856078208L503.2053514583333,263.07986767553695L503.9242,252.13849458374636L504.0109885416667,261.4663867788196L504.94890333333336,278.61397475222844L505.43731333333335,285.1057909382587L505.5899414583333,268.05670135338346L505.7844675,263.87106917571595L507.9541810416667,236.54363457126385L508.802913125,269.92933790542446L508.8106941666667,311.90698566828826L508.8669570833333,273.8219159054438L509.12193583333334,271.0231812958528L509.41881250000006,288.9023779967193L509.43976145833335,316.32413658730786L509.72646291666666,258.7636402680433L510.13047854166666,272.3442731996749L510.69131208333334,292.1456816852319L510.7158522916667,302.7266263640064L510.7338085416667,262.8590527818282L512.4629954166667,257.6811146763371L512.58988625,251.45623555346776L512.7754341666666,258.3936943683891L512.9065147916666,247.4468410297556L512.9442229166667,266.19327286984446L513.3494356250001,282.78346469465475L513.5816697916667,244.05963822879562L514.868534375,259.53385096000557L515.5909741666667,290.93459740404455L516.4385091666667,306.1597922988188L516.79164875,329.726744052616L517.5326433333333,295.9387904386803L518.0946739583334,360.1129068363359L518.7931720833333,300.331432213107L519.1469102083333,298.4040410695785L519.6867947916667,290.2004991637657L520.7527974999999,257.94137484234466L521.061645,243.1877662563435L521.51773375,220.28002656841926L522.25753125,254.82624936905341L523.0553872916666,307.46333320621756L523.286424375,264.97108688166196L525.451948125,295.83772667771854L525.5249702083333,304.2802435906307L526.10016875,320.75387532422405L527.0057622916667,254.11966835802463L527.0698062499999,211.5586069783307L527.2302154166666,236.64170765642768L530.4695229166666,252.3402227626112L531.1452764583333,321.1800676623502L532.3716883333334,302.4492811226558L532.8080252083333,301.95304021023L533.11747125,346.85136514176327L533.1360260416667,312.9450172261557L533.4317056250001,337.1375832841492L533.4951510416666,301.16034509454346L533.744144375,280.12352243491534L533.8369183333334,241.16061818259084L534.17329875,266.70245740209316L534.7329352083333,258.6759917580742L535.1369508333333,257.1512632992064L535.748061875,273.8910317317363L536.240063125,255.21575667236547L537.0109847916667,261.55175579651797L537.0887952083333,290.7412360731638L537.2845183333333,295.4820142402577L537.9040089583333,309.992915547748L540.183255625,303.34803688339014L541.5605,310.5093413103321L541.6927777083333,309.4612002318319L542.3846918749999,288.80434133679967L542.6139333333333,300.06866134447637L542.6767802083333,288.68069315697426L543.368694375,243.33575742689158L543.3914389583334,231.0757919624292L543.5883591666667,251.14997570960793L543.9678345833333,309.5618063762729L545.1828741666667,298.74176269501123L546.49846875,302.0666375740152L546.999448125,292.9863298764099L547.8565597916667,289.11562211693956L548.958475,332.19711131681L550.0974997916667,290.63289231556075L550.9635895833333,288.64511150418167L552.39171,280.21123506008666L552.6137689583334,265.2526727997009L552.9651129166666,299.24781132237547L553.9102102083333,262.3499165326144L555.1007095833334,293.96795909105435L555.5304625,278.2926478654069L555.5478202083333,303.903662268515L555.8189595833334,273.7086431647513L556.3857785416667,279.3890805760129L556.5419979166667,300.7727836441459L556.84126875,315.3190452618279L556.922071875,287.6107254721454L557.5403654166666,314.0019718109211L560.3571025,303.8160681544923L563.4557527083333,273.5660771262158L563.8849070833334,351.50721288511187L563.9022647916667,349.56871855729224L566.1060952083333,284.2411902694307L566.7884327083333,316.01919076135175L566.9799660416667,332.30087641054655L568.0525527083333,286.5277871321097L568.2171516666667,333.7095797795331L568.4906852083334,345.55332524408567L569.3633589583334,313.0065830160953L570.0008058333333,279.26412272511567L570.184558125,240.97200937306076L571.100326875,225.71661097547505L571.6503866666667,231.5607237025567L571.9179347916667,278.09018871810855L573.7554577083333,275.7820006944346L574.7250952083333,241.41686040983237L575.3984545833333,256.49428750768664L575.4038414583333,260.3125283103903L576.6224722916667,261.63443359027644L577.7758620833333,245.85252282792536L579.8318527083334,282.8752907620326L579.909663125,271.7882268969093L580.7799427083334,247.1596467342303L581.0546733333333,265.50894941367676L581.06065875,219.3606515495655L581.7543685416667,251.13668120912777L582.9957439583334,254.3935092747933L584.0844912499999,261.3400393045384L584.3221122916667,264.1390007565285L584.6052225000001,243.05834819256438L584.894318125,273.77519317495336L585.1612677083333,241.96880741135783L585.6855902083333,247.12357310781772L585.7807583333333,196.03371293741372L586.0483064583333,181.03504082797733L587.2262364583333,251.81856313490096L587.5117408333333,205.05134119476787L587.5452591666667,233.12847863367767L588.6274225,265.0635869189L589.2020225,304.2000172903475L589.7024033333333,297.3201492291888L590.098039375,359.43668098820433L590.6983766666667,315.8869056437804L591.7362479166667,329.0036913713451L591.9098250000001,344.99445100788097L594.630196875,343.4669232616653L594.9378472916667,322.4342252403395L595.1078331250001,331.9514406913454L595.2586656249999,317.9011207576949L595.7548566666667,343.548957595608L596.1624635416666,341.2463293846733L596.942961875,306.5711249575787L597.8485554166667,311.6988972464665L598.4716372916666,315.1140822195688L598.54286375,281.228308655243L599.4706033333333,299.4297274454956L601.4769150000001,226.09418600228594L602.225690625,255.56905885593432L602.568655,240.29414525065636L603.8243954166667,244.5164026882283L603.8519283333333,248.6307262460014L604.2894622916666,263.3986380982174L605.2686764583333,272.9731532149182L605.8684152083333,245.28015188054246L605.9581964583333,279.8701083402395L606.441818125,315.11663688066994L607.1439075,295.8472153952324L607.5251785416667,279.04765890899944L607.84420125,221.34430081166968L607.8825079166667,293.00950666974865L608.2170927083333,305.4503248018676L608.4966116666667,282.8215409685762L609.7230235416666,257.3325911622995L609.8888195833333,234.29220234523768L610.3856091666667,284.22392177087403L611.4581958333333,281.01955253781307L611.9699489583332,245.95842637360948L612.2291175,230.37155414665236L612.378154375,271.47278016236106L612.5236,253.95992034331968L612.712140625,265.6596720078948L612.8510022916666,258.0624870216468L614.6322622916667,262.9674600455537L615.9975358333334,300.5882360514032L616.3638433333333,259.5811631903667L619.2512083333334,215.64052063379378L619.2966975,237.86125077100834L620.0197358333334,286.39497850711496L620.7936502083334,302.6616457603892L620.9911689583333,339.4058167876318L621.4059583333333,298.95852841982366L621.995521875,254.37964798241342L623.1094079166667,240.224759967503L623.8132929166667,252.5652687736613L624.0419358333334,283.89003976513567L624.469893125,245.44658880430256L625.5879689583334,237.525670438992L625.9470939583333,195.44314286112032L626.7766727083333,200.91978433727746L626.8927897916666,196.60362176298815L628.0048802083334,218.39705488800826L628.1084279166666,261.9150498254289L628.856605,264.81881112713756L629.2115402083333,284.08285579001415L630.5462881249999,307.9061285550328L630.7210622916667,288.197766083177L631.8469191666667,313.8025355206109L631.9726129166667,275.5373798767431L632.3544825,267.9746543979466L632.9218999999999,250.2429003724946L634.5194077083333,210.8366091018612L634.985073125,223.78155561481088L636.6394422916667,257.5606133710989L637.2463635416667,275.4372181041036L637.448670625,344.3743638958332L637.527678125,353.3708321550962L639.8787497916667,333.9313664376423L640.36656125,310.5448135578447L640.6873795833333,329.3477872159373L641.4738633333334,338.230630489963L642.2274272916667,281.2695457773077L643.6393870833334,258.67123488406344L643.6878689583334,229.8908302057984L645.3320629166667,219.32463915760576L645.827056875,192.70043990382686L646.3813064583333,214.8988776526997L646.509394375,216.0628181411117L646.5279491666666,238.87154329498384L646.864928125,272.37037439751475L647.4227689583333,285.53769697909246L647.74298875,240.40668233731205L647.9237483333334,312.9972814828087L648.0057485416667,296.94390152155955L648.0757779166667,317.762595523951L648.9975320833333,267.4095581469282L649.03943,238.1599031029547L649.4554164583334,261.26537135472347L649.5565700000001,253.8228575899032L649.7062054166666,293.9302236386435L649.881578125,270.3003857701L650.2700316666667,275.5435967784508L650.775799375,297.66881291516916L651.9692914583333,281.6924094465274L653.5799670833334,287.8366128031554L653.9271212499999,274.78822659397997L654.0318660416667,257.7996227439934L654.4717941666667,239.89244876484273L654.8207439583333,267.86622847426065L655.5904685416667,277.6011360246428L656.2895652083333,292.4245625113541L656.7432597916667,294.9628612861093L657.1927645833333,296.7532782474196L657.4651010416667,234.80134040826795L657.8361968749999,138.9918154163017L658.3922420833334,185.91911685960628L658.3958333333333,264.5256927996706" style="fill: none;" fill="none"></path></g></g></g></g><g opacity="0.2"><g><g><g><path stroke="rgb(255, 112, 67)" stroke-width="2px" d="M65.3966625,-119.46439647674566L65.52115916666666,13.985493242740574L66.38126354166666,-159.86140125989925L66.41777458333333,50.34671223163599L67.018111875,-139.82751274108898L69.50026416666667,-7.860696852207241L71.60952499999999,66.42367190122599L71.86210958333334,47.236087381839695L72.14761395833334,1.3435984253882793L72.17095708333333,13.874530255794468L72.336753125,80.06930297613138L72.61447645833334,41.41334688663477L73.21960208333333,-42.53972822427755L74.04020270833334,56.745390057563725L74.30715229166667,-2.1151235103607746L74.41189708333333,14.812083005905095L74.65430645833334,109.14695656299591L74.969139375,84.67651998996735L77.70806604166667,110.1802641749382L78.17672416666667,2.7216235399245647L78.23298708333333,91.88742434978485L78.96919333333334,7.5116196870803265L79.267865625,186.32537519931796L79.71437770833333,162.0354647040367L80.054349375,197.6852813959122L80.075896875,28.21917182207102L80.10821812500001,98.42748141288757L80.51881770833333,84.66356492042542L81.37353520833334,61.9327688813209L81.778149375,13.150172889232579L81.796105625,106.5736854672432L82.45749416666666,20.135490059852543L82.52453083333333,78.65720039606089L83.02969999999999,195.39730346202853L83.101525,-95.12351059913641L84.55657979166666,96.85710167884827L85.97392645833332,161.28547883033752L86.18581020833334,200.94855076074603L86.30970833333333,47.798506379127446L87.01119916666667,35.75057333707804L87.58699625,193.1687498688698L87.63428104166667,141.16710072755814L88.43093999999999,126.37804394960403L88.69250270833334,175.31976199150088L91.52061208333332,-37.63736093044287L92.09281791666666,91.4973641037941L93.68434020833332,213.1350467205048L95.01609541666667,169.4119686484337L95.873805625,123.43245542049408L96.05097395833334,74.8089814782142L97.04694729166665,23.331167757511082L97.963913125,73.49038070440287L98.47267354166667,230.59538251161578L99.14423729166667,117.48551523685455L99.82896895833333,52.80845707654947L99.96902770833333,80.18618023395533L100.21981666666667,241.06927460432058L101.26427187499999,13.764412164688054L102.14472666666667,137.55995875597L102.60680083333332,-15.688656806945858L102.89290375,86.67357212305069L102.923429375,69.82888376712793L102.95634916666666,200.7423961758614L103.55309520833333,202.15647017955783L106.66491333333335,188.18161135911944L107.091075,337.67860776186L107.97093124999999,211.60522198677066L108.10440604166668,83.94709324836725L110.49139020833333,213.73097991943362L110.78347854166667,229.40464264154437L111.7956125,238.46417909860617L111.84648854166667,211.24501472711566L111.93208,91.18700569868088L112.16251854166667,74.2834562659263L112.60783354166668,192.071230173111L112.92925041666666,185.31882262229922L113.33206895833334,275.73816722631466L113.34164562500001,136.05998700857162L113.70675604166668,126.08092224597931L113.86477104166667,83.04727917909617L114.70871479166667,101.08242577314377L114.99182499999999,88.33576387166977L115.80045479166668,168.05872714519504L116.05782770833333,41.58345258235926L116.94127520833334,45.87467855215067L117.00292499999999,254.6323875188828L117.49432770833333,286.15742272138607L118.79495874999999,294.68439316749584L119.6389025,261.79259812831884L120.22188208333334,314.80023658275616L120.50738645833334,40.776295423507634L120.87129979166666,263.1663987636567L121.504556875,176.17057210206988L122.30241291666667,93.29473918676376L122.63879333333333,126.24117082357407L122.6555525,298.69455045461666L123.16431291666667,137.3774612545967L124.39910437500001,208.98153877258304L124.84741208333334,72.82065993547434L126.485620625,194.5856401920319L126.71007374999999,150.27676767110825L127.43071791666668,363.74279952049267L128.74391833333334,239.9489427208901L128.99650291666666,167.72217696905136L129.710563125,209.37328881025317L129.911673125,18.748171091079655L130.263615625,71.34547179937357L130.59580624999998,231.01642227172857L132.39262833333333,57.64802044630045L132.47642416666665,230.19095903635028L132.51892062500002,54.24562489986414L132.777490625,290.79421108961117L132.99895104166666,178.677096426487L133.25572541666665,238.79650479555136L134.84545208333333,288.2406542301179L137.70707979166667,105.94142174720764L138.67013333333333,139.31424415111542L138.7874475,74.06800782680506L140.28380166666668,144.2135134935379L140.29158270833332,150.31394308805466L140.34245875000002,255.87804561853414L140.58367104166666,231.76809793710714L141.02539479166666,406.662663280964L141.658651875,25.285975098609867L141.66164458333333,271.14841139316565L141.88729479166668,80.93278652429575L143.292670625,162.3258272409439L143.32020354166667,126.35776644945145L143.63503645833333,240.876638352871L143.68291979166668,213.2778341174126L144.09890625,224.30766767263415L144.24195770833333,184.45871865749362L144.38141791666666,257.13243430852896L145.38098250000002,210.03258919715884L146.1794370833333,310.4225496053697L146.21475104166666,82.59244358539576L147.427995,58.32759833335871L147.657835,211.86629480123523L148.133675625,189.65032196044925L148.841151875,158.41762071847916L150.08911125,57.81897103786463L150.151958125,116.74623137712479L150.25909708333333,195.18692439794543L150.39915583333334,275.3061438202859L151.29098291666668,293.2230049967767L152.741249375,120.77328658103943L153.61691583333334,277.6631215810777L153.90301875,298.3411023616792L154.19809979166666,339.0208656191827L155.77166583333334,189.883513212204L157.29016604166665,242.66077673435217L157.59362666666667,345.47671473026287L158.38729291666667,185.28446352481845L158.89066645833333,214.05035054683688L158.97087104166667,289.98170292377483L159.092375,282.051228940487L159.95068375,266.8661976456643L160.0476475,253.15100347995764L160.19608583333334,51.05980432033533L161.20103729166667,198.1688434481621L161.58410395833334,253.5866881012917L161.71877583333332,347.8075007200242L162.599230625,309.12788754701626L162.60521604166667,252.04024708271032L163.38511583333332,223.34730273485187L163.45753937499998,171.72416692972186L163.73466416666665,261.8635693788529L164.387673125,131.79551607370377L166.26110854166666,251.2989917993546L166.50950333333333,86.11368781328201L166.790219375,248.5882843136788L166.81416104166667,302.8379196524621L167.11043916666668,151.34246295690536L167.78020729166667,315.91972357034695L168.21953687500002,278.92793065309536L168.25485083333334,188.56294101476672L168.840823125,239.65998834371572L169.35676604166667,169.20158958435061L169.54949645833332,207.66265636682513L169.74521958333332,233.12021291255957L170.61909041666667,239.00857365131384L171.32177833333333,298.18141704797756L171.83532708333334,283.5661271810533L171.86525416666666,410.896717965603L172.345883125,353.47027426958095L173.17127208333332,230.9803733825684L173.77939041666664,292.92757308483135L174.902853125,155.323048889637L176.74755854166668,109.88877511024475L176.80920833333334,232.8490013480187L176.94028895833333,268.32279807329184L177.60287458333335,284.63745510578167L178.874775625,339.8995572924615L179.13573979166665,266.734675526619L179.68879229166666,179.69209796190265L180.401056875,330.14607971906673L180.71169999999998,338.6885399222375L183.21958958333332,227.65570825338366L183.78221875000003,169.45956444740298L184.11680354166668,145.97146010398865L184.79854250000002,178.40166038274768L184.90987124999998,280.70108538866054L185.54073416666668,258.0705503225327L185.66223812500002,140.08929526805878L187.40279729166667,349.41280281543743L187.86247729166666,223.07580953836444L188.73814374999998,252.10445916652685L189.11103520833333,327.4826864004136L189.152933125,171.48590630292895L189.17029083333333,159.62300544977188L190.25664395833334,127.83858722448349L191.24244208333334,212.8810147047043L191.45013604166667,163.83875405788422L191.691946875,109.98115038871765L192.29348124999999,299.5332503914834L193.65037520833332,252.60970687866217L194.43326770833335,266.14521986246115L195.27242312500002,203.19090431928637L195.33108020833333,335.77787375450146L195.33826270833333,405.34180945158016L195.969125625,202.37586146593097L196.42401729166664,340.8528814315797L196.67061645833334,242.9624045491219L196.67241208333334,194.32513064146045L197.09378541666666,269.84192079305654L198.131058125,412.4749833941461L198.75174583333333,223.0614463090897L199.79859520833332,310.0775504708291L200.461779375,291.5982702970506L200.64014479166667,213.36598491668704L202.33521479166666,186.60081124305728L202.67518645833331,394.0269643664361L203.1079320833333,125.25686717033386L203.56042958333333,377.7646908760072L204.42053395833335,119.89994591474533L204.47919104166667,107.51771575212479L204.73955666666666,202.37614309787753L204.90535270833334,207.8127661943436L206.43702083333332,310.4960555434228L207.12534374999998,215.2123639583588L207.99741895833333,155.15942072868347L208.8671,337.90954595804226L209.29565583333334,195.69189047813418L209.5039483333333,257.48869872093206L210.00971604166665,336.1921543478967L210.27905979166667,231.24567067623144L210.56456416666666,216.8937066793442L210.72617041666663,309.55709463357937L211.54796812499998,235.48958247900015L212.13633458333334,229.0542925000191L212.24347354166665,201.74331611394885L213.64645520833335,158.49366134405136L214.40181479166668,224.402014374733L214.48740625,267.6406854987145L214.94289645833334,270.29225027561193L216.04541020833332,339.67565989494335L216.97853666666666,184.65811407566073L217.03001125,154.01712155342102L217.182639375,230.74014133214953L217.83744395833332,292.2060320377351L217.9960575,291.23609161376964L218.44376666666665,276.3676146268846L218.63051166666668,279.63201051950466L218.82743187499997,200.72268193960193L218.88309625,308.9065248370172L220.20168354166668,339.71677815914165L220.67453145833335,208.60724991559985L221.81535187499998,353.4409845471383L221.97576104166666,282.50662779808056L222.0900825,255.106092453003L222.70119354166667,192.53958410024646L222.86339833333332,286.2385327219964L223.10700479166667,137.82638257741928L223.21893208333333,290.486387372017L224.69373875,223.47460037469867L224.76795791666666,274.35253804922115L225.912968125,187.75437569618228L226.774868125,202.97010487318042L226.87602166666667,279.96123826503765L227.1351902083333,132.7454606294632L227.98691499999998,351.87426602840435L228.21017104166668,365.33430165052425L229.03196875,219.44416558742526L229.66402875,284.2158520817758L230.021358125,169.91383677721026L230.3703079166667,267.3325801491738L230.7599585416667,198.87038862705234L231.72121645833334,202.0922580957413L232.68905833333335,314.4715721011163L233.05057749999997,209.98133218288424L233.91966000000002,172.9419434666634L235.7212704166667,363.91853785514843L235.82601520833333,274.0176776647569L236.66816333333333,255.0835618972779L236.76692270833334,277.6225665807725L237.54981520833334,201.20821541547778L238.42967145833336,259.62206071615225L238.91868,282.5497174859048L239.10841770833332,452.78214758634584L239.915251875,121.3596442937851L240.51139937499997,252.16191208362585L240.87172145833333,232.8512544035912L240.90942958333332,144.63370835781097L241.82459979166669,353.9969260096551L244.451000625,284.62900614738476L244.71675312499997,162.73447519540787L244.80892854166666,260.0563371777535L245.25065229166668,280.39129024744045L245.35180583333332,291.5329316854478L245.368565,282.1523348093034L246.38309312500002,235.72474515438086L247.051065625,219.91139298677447L247.97042562500002,217.64650887250903L248.49594520833335,354.4323289990426L250.1940079166667,156.70220053195953L250.43522020833333,273.2702264785768L250.68600916666668,236.23703366518026L250.85539645833333,362.5596637129785L251.04932395833333,328.88296043872845L251.35218604166667,380.4041454792024L251.55628875000002,218.72684901952746L251.90104875,358.1301564574243L252.21528312499998,201.18540322780612L252.8168175,217.62228852510455L253.2124535416667,280.85851764678966L253.96362333333332,323.1475258469583L254.194061875,324.4089553356172L254.4173179166667,-28.292812943458614L256.8043020833333,355.62363213300716L257.401048125,260.19968783855444L257.5710339583333,294.9432129263879L257.95290354166667,187.67411059141162L258.3533279166667,509.5782989859583L258.539474375,336.17075031995785L258.555635,270.6986451745034L259.322366875,393.37526804208767L260.03522999999996,187.38177663087848L260.05258770833336,291.70641696453106L261.19879499999996,308.51618295907986L261.39751083333334,299.0995371937753L262.5850175,248.3500236868859L262.6017766666667,280.8838645219804L262.69395208333333,168.37781614065173L264.4123652083333,331.5877536535264L265.19286354166667,379.0424550175668L266.05356645833336,217.02832674980166L266.07152270833336,396.2766403555871L266.18404854166664,252.28695666790014L266.51803479166665,404.31103652715694L267.614563125,268.96379238367086L268.25679833333334,273.4454015493394L268.95709208333335,254.6566078662873L270.9167175,184.77358317375186L270.91971020833336,137.904676258564L271.26207604166666,279.0557915568353L274.18176229166664,304.00274938344967L274.22904708333334,218.159079015255L274.2493975,205.55661267042163L274.61510645833334,236.36461293697363L274.95926791666665,241.3199270367623L275.20347291666667,275.44104552268993L275.59791187499997,299.663927614689L277.92324625,318.2226279973985L278.18421041666664,260.4314709305764L278.20096958333335,303.63409316539776L280.3066391666667,224.76729100942615L281.81556270833335,189.0932539701462L281.9879427083333,191.52599072456363L282.3482647916667,228.99430489540103L283.94038562500003,406.9848502278329L284.220503125,240.2424032092095L284.3378172916667,219.23913753032687L284.63589104166664,327.06023848056805L285.67316375,298.7534115314485L285.7264339583333,206.45248389244082L287.1407879166667,329.99681478738796L287.1970508333334,316.4869303107263L287.528044375,275.5548248291017L287.6872564583333,342.55112206935894L288.28879083333334,230.6021416783333L289.04235479166664,90.04555141925812L289.16745000000003,245.203631579876L290.59616895833335,202.15787833929065L290.74400875000003,77.31691396236414L291.0534547916667,277.1322453618051L291.87644958333334,260.789988398552L291.91415770833333,174.45543354749682L292.07755958333337,204.37967276573184L292.58991125,243.47750937938696L293.054978125,310.7461447119714L294.0162360416667,154.12892943620682L294.627945625,342.4364978671075L296.226051875,86.6890618801117L296.64084125,61.89587509632105L297.39081395833335,229.30015718936923L297.78046458333336,362.48925572633755L298.03484479166667,341.7594546675683L298.19106416666665,259.32240432500845L298.84108041666667,357.21992200613033L299.3893445833333,352.08858793973934L301.1322979166667,276.00825226306927L301.31066333333337,298.50360399484646L301.785306875,227.00288540124896L302.77050645833333,339.0222737789155L303.77007104166665,295.5470318198205L304.0286410416667,143.99046099185944L306.00861687500003,329.9889290928842L306.4988225,278.1869570016862L307.41698541666665,235.17443633079534L308.258535,181.92572093009952L308.33036,241.9161418676377L308.62963083333335,211.52608340978625L308.910346875,411.5346143245698L309.5430054166667,270.4727763533593L309.78361916666665,127.86590552330017L309.92966333333334,383.1511834859849L310.23072979166665,307.90982937812817L310.7550522916667,223.53627777099612L311.1626591666667,222.2787911295891L312.1580339583333,230.06168997287753L312.74161208333334,224.71068298816684L313.316810625,197.76892608404162L313.487395,151.44131577014923L314.2559225,296.56597620248806L314.60427375,304.47166657447826L315.177078125,276.9238377213479L315.4649766666667,278.3486137390138L316.18502229166666,424.49559813737886L316.3735629166667,208.22479373216632L317.30549229166667,250.64842200279242L317.6646172916667,247.45133614540106L318.4672616666667,175.4259372353554L318.58577291666666,163.8443866968155L320.16592291666666,197.54305726289752L320.53223041666666,249.76184463500982L320.621413125,257.56811892986303L320.94402708333337,134.31161588430405L322.1997675,277.52455866336834L322.50921354166667,307.7684501409532L324.55921875,300.9329611659051L324.582561875,166.66943675279617L324.79025583333333,358.0329934358598L325.04044625,323.41704761981975L325.51030145833334,241.01970738172537L326.13039062499996,284.6937814950944L326.41529645833333,256.96317350864416L327.703358125,250.3783369660378L328.23665875,144.6948224902153L328.3839,219.5796305537224L328.597579375,345.6986407041551L328.73165270833334,250.08938258886343L328.8573464583333,333.65549540519726L329.45648666666665,396.2859342098237L329.4762385416667,313.3008280992509L330.72300083333334,289.01908493042004L331.603455625,258.999935746193L332.594640625,253.36617028713232L334.2549952083333,370.3588972091676L335.1719610416667,371.6189185380937L335.40239958333336,373.06059247255337L335.78426916666666,242.89847409725195L337.17827270833334,340.2293483018876L337.89053729166665,271.85699737071997L338.9361895833333,290.84715789556515L339.40963604166666,357.0244694352151L340.33079166666664,329.04743349552166L342.4616,412.8971496820451L342.6603158333333,154.72176468372345L342.75368833333334,365.6528273820878L342.81713375000004,237.58492416143423L344.449356875,204.63370478153232L344.95452604166667,155.74774986505508L345.02275979166666,227.19636654853824L345.156833125,250.36481863260275L345.296891875,259.12441706657415L345.43156375,362.63598597049725L345.43754916666666,318.0511141419412L346.24917166666665,201.08091777563098L346.39820854166663,275.4948372244836L346.57896812499996,189.53710591793063L346.65258875,230.5596152544022L347.031465625,292.50230884552013L347.3971745833333,309.85534286499035L347.839496875,254.619995713234L347.936460625,334.89298617839825L350.11096249999997,210.52009409666064L350.1283202083333,362.5602269768716L350.19415979166666,188.52069622278216L351.0602495833333,248.31284826993948L352.20166854166666,360.82255786657345L353.44783229166666,278.1770998835565L355.6558525,202.7831012606621L358.4558304166667,223.12762981653216L358.59708625,208.02652484178546L359.5314097916667,244.73584091663366L359.95577583333335,336.78104674816143L360.1149879166667,391.89163094759L361.590393125,340.52506184577953L363.94146479166665,118.63907968997955L364.35146583333335,188.70150393247607L364.9709564583334,313.7998799085618L364.971555,424.5296756029131L365.40609625,256.85305541753775L365.82208270833337,100.09108132123947L366.19257999999996,376.96091330051433L366.8234429166667,217.28799140453341L367.7799125,252.0047614574433L368.4185564583333,239.73715549707418L368.5119289583333,238.39151805639273L369.0751566666667,357.13430589437496L369.26309875,246.25496363639837L370.14295500000003,264.7165009975434L370.40152500000005,348.8951632976533L370.50148145833333,298.5559875369073L373.222451875,206.0660848617554L373.45109479166666,354.01917493343365L374.21064416666667,397.6081961989404L374.4913602083334,227.55122280120852L375.89314479166666,203.4677485227585L376.40190520833335,291.7424658536912L376.479715625,258.04604834318167L376.65927812499996,143.50070303678513L376.7299060416667,262.9464442133904L376.81968729166664,159.40530395507812L377.3242579166667,219.96659284830096L377.399075625,349.784275352955L378.17298999999997,252.3508871197701L378.677560625,234.15436542034155L378.821210625,314.0206793546678L379.1348464583333,136.35260260105133L379.62744625000005,334.55981558561336L379.89080458333336,265.76022899150854L380.810763125,175.55689609050754L381.05556666666666,442.8242052197458L381.2482970833333,226.39033591747287L383.0277614583333,281.23365139961254L384.05246479166664,227.72808766365054L384.5755902083333,338.5116750597955L385.32795708333333,219.1985825300217L386.1425722916666,321.2284857630731L387.4036995833334,223.19662964344028L387.57607958333335,366.1442751288415L388.1195554166667,181.55734634399417L388.73066645833336,342.50606095790874L388.88928000000004,248.9118794202805L391.0308620833334,312.7784008383752L391.8490685416667,265.92948979139334L392.9683414583334,174.76832664012912L393.20117416666665,268.02370494604116L393.26162687499993,196.72914093732837L393.53097062499995,207.75869286060336L393.988855,219.16675812006L394.0271616666667,353.3860663175584L394.39047645833335,199.74063134193423L394.5287395833333,242.62275642156607L394.5909879166666,311.6589138507844L394.66580562499996,335.59875583648693L395.00517874999997,255.03934568166738L396.5446279166667,222.0281386971474L397.1443666666667,324.321931064129L397.7638572916667,176.61808526515964L397.99309875,291.9939631819726L398.09664645833334,246.65966874361044L398.23730375,278.15485095977795L398.6060054166666,192.43791496753695L398.9651304166667,275.1802543401719L399.60197875000006,291.7123312354089L399.68757020833334,314.3977845311166L400.3818785416667,421.6550583243372L400.5404920833334,304.0117616057397L401.16477104166665,276.1361131668092L402.88557833333334,176.49698352813724L403.44461625,331.45313358306896L404.1233625,318.90614873170864L405.4856433333333,317.9562041759492L405.70710375,275.6105879545213L406.8676760416667,259.91861915588385L407.807985,166.41991084814072L408.1024675,171.66164463758471L408.879973125,348.2657158970834L409.1720614583333,128.6730626821518L409.8220777083333,90.51587677001953L410.12075,279.85337322950375L410.370341875,263.8409072756768L410.4523420833333,340.71572667360317L411.0682414583334,425.72604811191576L411.4417314583333,204.11775505542758L412.11628791666664,332.98183178901684L412.51431812500005,234.40642601251608L412.53526708333334,294.5379445552827L412.58075625,366.70528596639645L412.84650874999994,176.39306133985522L413.28045145833335,279.0510038137437L413.29481645833334,158.7930361032486L415.14909854166666,286.6207072734834L416.77413916666666,250.38988387584692L418.86005687499994,271.4725697636605L418.87083062500005,178.50332951545718L419.168904375,254.9996355772019L419.8255045833333,259.3393022418023L421.4451583333333,102.0315254330635L421.4810708333333,375.9901279807092L423.0480529166666,300.66653734445583L424.2241872916667,339.43035846948635L424.4474433333333,225.02329444885257L425.2399125,177.37201398611072L425.41767937500003,400.79824125766766L426.426820625,215.5531386137009L427.90701416666667,344.2724565267564L428.70965854166667,196.95500975847247L429.40875520833333,115.64505046606064L432.79949374999995,229.86567413806918L432.9904285416667,294.8370376825334L433.084998125,391.59535413980495L433.70149604166664,336.93003004789364L434.20965791666663,295.22456324100506L434.496359375,229.17173302173617L435.00930958333333,188.49732077121737L437.5034327083333,326.20238757133495L437.72728729166664,270.727934896946L438.54669083333334,280.0074259042741L438.80107104166666,202.3212248682976L440.38900208333337,206.06467670202258L442.6832122916666,202.51048153638843L442.7065554166666,241.05406647920614L443.840791875,334.89129638671886L444.01377041666666,347.7697620391847L444.6799472916666,84.85817259550095L444.76972854166667,239.23190778493887L445.984768125,167.18425995111465L446.18827229166664,328.9728010296823L446.649149375,228.16884166002276L446.663514375,110.34135764837265L447.31652333333335,225.14129823446277L447.570305,370.99960988760006L448.34302229166667,235.5521047711373L449.2791414583333,347.9669044017793L450.08238437499995,261.421970486641L451.1124745833334,154.15258651971817L451.1519783333334,258.15025216341024L451.80738145833334,356.09198606014263L452.48193791666665,331.1695302128793L452.86500458333336,415.82386887073534L453.605400625,265.4980296492577L453.9363941666667,248.98538535833364L454.05490541666666,275.078866839409L454.395475625,260.655086696148L454.96049895833335,462.16443425416963L456.3856266666667,308.4854850769044L456.8345329166667,179.29161733388904L456.973993125,309.99306088686L457.9424335416667,209.0547630786896L458.05735354166666,306.2535519003869L458.3931354166667,289.58882635831844L459.19458270833337,264.1721064448357L459.27239312499995,406.90317696332943L459.34361958333335,226.90684890747073L459.38072916666664,274.7603411078454L459.4423789583333,336.639949142933L459.72070083333335,130.9351304769516L459.93857,247.30770385265356L460.41680479166666,216.75345396995547L462.33932062499997,270.7054043412209L464.7316916666667,215.11858052015307L465.30150333333336,241.67590981721884L466.0915783333333,296.4555764794351L467.70704229166665,217.70593321323398L467.9979335416667,318.1589791774751L468.017086875,209.43271315097812L469.5044629166667,187.47358864545825L469.6852225,239.7898206710816L470.037165,365.67366814613354L470.22391000000005,184.96988064050677L470.62433437500005,218.44803339242938L471.18516791666667,175.29582327604297L471.47007375,339.2126569747926L471.76575333333335,313.4971255660058L472.0907614583333,364.0655497312547L472.2595502083333,269.432991206646L474.1443579166667,222.8873977661133L474.17548208333335,181.06787002086642L474.21498583333334,219.80972385406497L474.8985204166667,242.2127003073693L475.06431645833334,361.18896102905285L475.27021479166666,353.5784209370614L475.56409875,293.0109361410142L475.67842020833336,304.1866550445558L475.77837666666665,215.34135138988498L476.887474375,340.6858736872674L477.5835783333333,344.16656291484844L477.74698020833335,370.2975014448167L478.5993035416667,344.9571037888528L479.04880833333334,296.9870159626008L479.17689624999997,254.26880067586904L481.18260937499997,160.94470417499542L481.49983645833333,271.49763500690466L481.5321577083334,229.46068739891055L482.44194104166667,337.1288622021676L483.39003104166665,297.6322347521783L484.64218020833334,343.2912508249284L484.74333375000003,391.55029302835476L484.90853125,329.7681296467782L485.92485500000004,287.83679401874554L486.6939810416667,375.3753254413606L487.23566125,373.24308997392666L487.69414416666666,331.93528747558605L488.08918166666666,252.62463337183004L488.4147883333333,310.9703237414361L488.88045375,407.6345751285554L489.37664479166665,213.87038773298266L489.75731729166665,377.76412761211407L490.1840775,274.6403658986093L490.24213604166664,265.196401834488L490.4384577083333,367.04775041341793L490.7880060416667,242.65852367877966L492.87512083333337,229.98395955562594L493.26237729166667,321.7731619477273L493.7525829166667,128.06192135810852L494.97779770833336,267.7285546660424L495.5134925,345.3916618824006L495.5571860416666,221.0336962938309L495.94743520833333,272.61571383476263L496.26526083333334,246.75063586235052L496.2748375,267.4356574416161L496.325115,130.10009175539017L497.6496877083333,284.87289941310894L498.0052214583333,376.9147256612779L498.9191945833333,281.63863813877117L499.1987135416667,82.73832893371576L500.2419716666667,383.14160799980175L500.30721270833334,260.50638502836233L500.9332872916667,102.62830352783203L501.0093020833333,399.3951508998872L502.1567064583333,258.045203447342L503.2053514583333,249.2658907771111L503.9242,235.72643494606024L504.0109885416667,275.4582250714303L504.94890333333336,304.3353567123414L505.43731333333335,294.84351521730434L505.5899414583333,242.48306697607046L505.7844675,257.5926209092141L507.9541810416667,195.55248266458514L508.802913125,320.0078929066659L508.8106941666667,374.87345731258404L508.8669570833333,216.6943112611771L509.12193583333334,266.82507938146597L509.41881250000006,315.7211730480195L509.43976145833335,357.4567744731904L509.72646291666666,172.42289578914645L510.13047854166666,292.7152225971223L510.69131208333334,321.8477944135667L510.7158522916667,318.59804338216793L510.7338085416667,203.05769240856173L512.4629954166667,249.9142075181008L512.58988625,242.11891686916357L512.7754341666666,268.7998825907708L512.9065147916666,231.02656102180487L512.9442229166667,294.3129206299783L513.3494356250001,307.6687524318696L513.5816697916667,185.97389853000644L514.868534375,282.74517005682003L515.5909741666667,338.0357170701028L516.4385091666667,328.9975846409799L516.79164875,365.0771716833116L517.5326433333333,245.25686001777655L518.0946739583334,456.37408143281954L518.7931720833333,210.65922027826312L519.1469102083333,295.5129543542863L519.6867947916667,277.8951863050462L520.7527974999999,209.55268836021426L521.061645,221.05735337734225L521.51773375,185.91841703653338L522.25753125,306.6455835700036L523.0553872916666,386.41895896196377L523.286424375,201.23271739482882L525.451948125,342.1376863718034L525.5249702083333,316.9440189599992L526.10016875,345.46432292461407L527.0057622916667,154.16835790872574L527.0698062499999,147.7170149087906L527.2302154166666,274.26635867357265L530.4695229166666,275.88799542188656L531.1452764583333,424.43983501195925L532.3716883333334,274.3531013131143L532.8080252083333,301.208678841591L533.11747125,414.1988525390626L533.1360260416667,262.0854953527451L533.4317056250001,373.42643237113964L533.4951510416666,247.19448781013494L533.744144375,248.56828844547277L533.8369183333334,182.71626180410388L534.17329875,305.01521623134624L534.7329352083333,246.63629329204565L535.1369508333333,254.86417061090475L535.748061875,299.0006843805314L536.240063125,227.2028440833092L537.0109847916667,271.0557544827462L537.0887952083333,334.5254564881326L537.2845183333333,302.59318149089825L537.9040089583333,331.7592675089837L540.183255625,293.3807188868524L541.5605,321.25129795074474L541.6927777083333,307.88898861408245L542.3846918749999,257.8190529942513L542.6139333333333,316.9651413559915L542.6767802083333,271.59874087572103L543.368694375,175.31835383176806L543.3914389583334,212.68584376573565L543.5883591666667,281.2612513303758L543.9678345833333,397.1795523762704L545.1828741666667,282.5116971731187L546.49846875,307.053949892521L546.999448125,279.36586833000194L547.8565597916667,283.3095604777337L548.958475,396.8193451166154L550.0974997916667,228.2865638136864L550.9635895833333,285.6634402871133L552.39171,267.56042039394384L552.6137689583334,242.81482940912252L552.9651129166666,350.2405191063882L553.9102102083333,207.0030743479729L555.1007095833334,341.39502292871487L555.5304625,254.77968102693563L555.5478202083333,342.3201838731767L555.8189595833334,228.4161145091057L556.3857785416667,287.90973669290554L556.5419979166667,332.84833824634563L556.84126875,337.1384376883508L556.922071875,246.0482457876206L557.5403654166666,353.5888413190843L560.3571025,288.5372126698495L563.4557527083333,228.1910905838013L563.8849070833334,468.41891652345674L563.9022647916667,346.6609770655633L566.1060952083333,186.24989783763888L566.7884327083333,363.68619149923336L566.9799660416667,356.7234048843385L568.0525527083333,217.86815321445468L568.2171516666667,404.4822687506677L568.4906852083334,363.31894344091427L569.3633589583334,264.18646967411047L570.0008058333333,228.65043228864673L570.184558125,183.53383934497836L571.100326875,202.833513379097L571.6503866666667,240.32689279317862L571.9179347916667,347.8843862414361L573.7554577083333,272.31971865892416L574.7250952083333,189.86914998292926L575.3984545833333,279.11042815446865L575.4038414583333,266.0398895144463L576.6224722916667,263.6172915101052L577.7758620833333,222.17965668439868L579.8318527083334,338.40944266319286L579.909663125,255.15763109922415L580.7799427083334,210.21677649021152L581.0546733333333,293.0329034328462L581.06065875,150.1382047533989L581.7543685416667,298.8007256984712L582.9957439583334,259.2787513732911L584.0844912499999,271.7598343491555L584.3221122916667,268.33744293451315L584.6052225000001,211.43736934661868L584.894318125,319.8504606485368L585.1612677083333,194.25922876596454L585.6855902083333,254.85572165250784L585.7807583333333,119.39892268180847L586.0483064583333,158.53703266382217L587.2262364583333,357.99384659528744L587.5117408333333,134.9005082845688L587.5452591666667,275.2441847920419L588.6274225,312.9662493467332L589.2020225,362.90466284751903L589.7024033333333,287.0003471374513L590.098039375,452.6114786267282L590.6983766666667,250.56224262714392L591.7362479166667,348.6788699626924L591.9098250000001,368.98059046268475L594.630196875,341.1756316423417L594.9378472916667,290.88517820835125L595.1078331250001,346.2272638678552L595.2586656249999,296.8256408572198L595.7548566666667,382.02071285247814L596.1624635416666,337.79238706827175L596.942961875,254.55831831693655L597.8485554166667,319.39055567979824L598.4716372916666,320.2368596792222L598.54286375,230.399648308754L599.4706033333333,326.73185563087475L601.4769150000001,116.09087383747101L602.225690625,299.78136813640606L602.568655,217.38177484273913L603.8243954166667,250.84978884458548L603.8519283333333,254.80221158266073L604.2894622916666,285.55050587654125L605.2686764583333,287.334925889969L605.8684152083333,203.74064987897876L605.9581964583333,331.75504302978527L606.441818125,367.9864296913148L607.1439075,266.94308316707617L607.5251785416667,253.8483241796494L607.84420125,134.78926366567612L607.8825079166667,400.50731545686733L608.2170927083333,324.1115520000459L608.4966116666667,248.87836521863943L609.7230235416666,219.0991664528847L609.8888195833333,199.7316191196442L610.3856091666667,359.1215009093286L611.4581958333333,276.2129986882211L611.9699489583332,193.3667371273041L612.2291175,206.99124580621722L612.378154375,333.12461918592464L612.5236,227.69063061475757L612.712140625,283.20929950475704L612.8510022916666,246.66670954227453L614.6322622916667,270.3249195814133L615.9975358333334,357.01940006017696L616.3638433333333,198.07055389881137L619.2512083333334,149.72955679893494L619.2966975,271.1923459768296L620.0197358333334,359.19557011127483L620.7936502083334,327.06164664030086L620.9911689583333,394.52207332849514L621.4059583333333,238.2875958681107L621.995521875,187.5113273262978L623.1094079166667,218.99242794513705L623.8132929166667,271.07603198289877L624.0419358333334,330.87719625234615L624.469893125,187.7814123630524L625.5879689583334,225.64429289102557L625.9470939583333,132.3193514943123L626.7766727083333,209.1347465515137L626.8927897916666,190.12937790155414L628.0048802083334,251.0872045755387L628.1084279166666,327.19204223155987L628.856605,269.1744530797005L629.2115402083333,312.9789227843286L630.5462881249999,343.64103770256054L630.7210622916667,258.63522237539297L631.8469191666667,352.20968967676174L631.9726129166667,218.1396464109421L632.3544825,256.6305661797524L632.9218999999999,223.64526933431628L634.5194077083333,151.7271721959114L634.985073125,243.19897538423544L636.6394422916667,308.2292000055314L637.2463635416667,302.2521252036096L637.448670625,447.7800825834276L637.527678125,366.8655345439912L639.8787497916667,304.77216786146175L640.36656125,275.46498423814785L640.6873795833333,357.5522477030755L641.4738633333334,351.5548954010011L642.2274272916667,195.82791870832446L643.6393870833334,224.7737685441971L643.6878689583334,186.7202231884003L645.3320629166667,203.47535258531573L645.827056875,152.76414102315903L646.3813064583333,248.19653427600866L646.509394375,217.80872887372973L646.5279491666666,273.0846310257913L646.864928125,322.6186210513116L647.4227689583333,305.2886808514596L647.74298875,172.71016037464145L647.9237483333334,421.8831802010538L648.0057485416667,272.86383157968527L648.0757779166667,348.9906365275384L648.9975320833333,191.88000208139422L649.03943,194.28542053699496L649.4554164583334,295.9235737323762L649.5565700000001,242.6590869426728L649.7062054166666,354.09127271175396L649.881578125,234.8556289672852L650.2700316666667,283.4084132909776L650.775799375,330.856637120247L651.9692914583333,257.72780424356466L653.5799670833334,297.05291783809673L653.9271212499999,255.21564728021627L654.0318660416667,232.31671696901327L654.4717941666667,213.0316877961159L654.8207439583333,309.8268980383874L655.5904685416667,292.203497350216L656.2895652083333,314.65970224142086L656.7432597916667,298.7703094482423L657.1927645833333,299.4389036893846L657.4651010416667,141.87343364953995L657.8361968749999,-4.722472071647701L658.3922420833334,256.3100690245629L658.3958333333333,382.4355567097665" style="fill: none;" fill="none"></path></g></g></g></g></g><g><g opacity="0.215971"><span fill="rgb(0, 0, 0)" stroke="none" stroke-width="1px">Alt + Scroll to Zoom</span></g></g></g><g transform="translate(58, 378)" clip-path="url(#clip_1)"><clipPath id="clip_1"><rect width="718" height="22"></rect></clipPath><g><g><line x1="0" y1="0" x2="0" y2="5" style="visibility: inherit;" fill="rgb(0, 0, 0)" stroke="rgb(204, 204, 204)" stroke-width="1px"></line><line x1="59.854166666666664" y1="0" x2="59.854166666666664" y2="5" style="visibility: inherit;" fill="rgb(0, 0, 0)" stroke="rgb(204, 204, 204)" stroke-width="1px"></line><line x1="119.70833333333333" y1="0" x2="119.70833333333333" y2="5" style="visibility: inherit;" fill="rgb(0, 0, 0)" stroke="rgb(204, 204, 204)" stroke-width="1px"></line><line x1="179.5625" y1="0" x2="179.5625" y2="5" style="visibility: inherit;" fill="rgb(0, 0, 0)" stroke="rgb(204, 204, 204)" stroke-width="1px"></line><line x1="239.41666666666666" y1="0" x2="239.41666666666666" y2="5" style="visibility: inherit;" fill="rgb(0, 0, 0)" stroke="rgb(204, 204, 204)" stroke-width="1px"></line><line x1="299.27083333333337" y1="0" x2="299.27083333333337" y2="5" style="visibility: inherit;" fill="rgb(0, 0, 0)" stroke="rgb(204, 204, 204)" stroke-width="1px"></line><line x1="359.125" y1="0" x2="359.125" y2="5" style="visibility: inherit;" fill="rgb(0, 0, 0)" stroke="rgb(204, 204, 204)" stroke-width="1px"></line><line x1="418.9791666666667" y1="0" x2="418.9791666666667" y2="5" style="visibility: inherit;" fill="rgb(0, 0, 0)" stroke="rgb(204, 204, 204)" stroke-width="1px"></line><line x1="478.8333333333333" y1="0" x2="478.8333333333333" y2="5" style="visibility: inherit;" fill="rgb(0, 0, 0)" stroke="rgb(204, 204, 204)" stroke-width="1px"></line><line x1="538.6875" y1="0" x2="538.6875" y2="5" style="visibility: inherit;" fill="rgb(0, 0, 0)" stroke="rgb(204, 204, 204)" stroke-width="1px"></line><line x1="598.5416666666667" y1="0" x2="598.5416666666667" y2="5" style="visibility: inherit;" fill="rgb(0, 0, 0)" stroke="rgb(204, 204, 204)" stroke-width="1px"></line><line x1="658.3958333333333" y1="0" x2="658.3958333333333" y2="5" style="visibility: inherit;" fill="rgb(0, 0, 0)" stroke="rgb(204, 204, 204)" stroke-width="1px"></line><line x1="718.25" y1="0" x2="718.25" y2="5" style="visibility: inherit;" fill="rgb(0, 0, 0)" stroke="rgb(204, 204, 204)" stroke-width="1px"></line></g><g transform="translate(0, 8)"><text x="0" y="0" dx="0em" dy="0.95em" style="text-anchor: middle; visibility: hidden; font-family: &quot;Helvetica Neue&quot;, sans-serif; font-size: 12px; font-weight: 200;" fill="rgb(50, 49, 63)" stroke="none" stroke-width="1px">-100k</text><text x="59.854166666666664" y="0" dx="0em" dy="0.95em" style="text-anchor: middle; visibility: inherit; font-family: &quot;Helvetica Neue&quot;, sans-serif; font-size: 12px; font-weight: 200;" fill="rgb(50, 49, 63)" stroke="none" stroke-width="1px">0</text><text x="119.70833333333333" y="0" dx="0em" dy="0.95em" style="text-anchor: middle; visibility: inherit; font-family: &quot;Helvetica Neue&quot;, sans-serif; font-size: 12px; font-weight: 200;" fill="rgb(50, 49, 63)" stroke="none" stroke-width="1px">100k</text><text x="179.5625" y="0" dx="0em" dy="0.95em" style="text-anchor: middle; visibility: inherit; font-family: &quot;Helvetica Neue&quot;, sans-serif; font-size: 12px; font-weight: 200;" fill="rgb(50, 49, 63)" stroke="none" stroke-width="1px">200k</text><text x="239.41666666666666" y="0" dx="0em" dy="0.95em" style="text-anchor: middle; visibility: inherit; font-family: &quot;Helvetica Neue&quot;, sans-serif; font-size: 12px; font-weight: 200;" fill="rgb(50, 49, 63)" stroke="none" stroke-width="1px">300k</text><text x="299.27083333333337" y="0" dx="0em" dy="0.95em" style="text-anchor: middle; visibility: inherit; font-family: &quot;Helvetica Neue&quot;, sans-serif; font-size: 12px; font-weight: 200;" fill="rgb(50, 49, 63)" stroke="none" stroke-width="1px">400k</text><text x="359.125" y="0" dx="0em" dy="0.95em" style="text-anchor: middle; visibility: inherit; font-family: &quot;Helvetica Neue&quot;, sans-serif; font-size: 12px; font-weight: 200;" fill="rgb(50, 49, 63)" stroke="none" stroke-width="1px">500k</text><text x="418.9791666666667" y="0" dx="0em" dy="0.95em" style="text-anchor: middle; visibility: inherit; font-family: &quot;Helvetica Neue&quot;, sans-serif; font-size: 12px; font-weight: 200;" fill="rgb(50, 49, 63)" stroke="none" stroke-width="1px">600k</text><text x="478.8333333333333" y="0" dx="0em" dy="0.95em" style="text-anchor: middle; visibility: inherit; font-family: &quot;Helvetica Neue&quot;, sans-serif; font-size: 12px; font-weight: 200;" fill="rgb(50, 49, 63)" stroke="none" stroke-width="1px">700k</text><text x="538.6875" y="0" dx="0em" dy="0.95em" style="text-anchor: middle; visibility: inherit; font-family: &quot;Helvetica Neue&quot;, sans-serif; font-size: 12px; font-weight: 200;" fill="rgb(50, 49, 63)" stroke="none" stroke-width="1px">800k</text><text x="598.5416666666667" y="0" dx="0em" dy="0.95em" style="text-anchor: middle; visibility: inherit; font-family: &quot;Helvetica Neue&quot;, sans-serif; font-size: 12px; font-weight: 200;" fill="rgb(50, 49, 63)" stroke="none" stroke-width="1px">900k</text><text x="658.3958333333333" y="0" dx="0em" dy="0.95em" style="text-anchor: middle; visibility: inherit; font-family: &quot;Helvetica Neue&quot;, sans-serif; font-size: 12px; font-weight: 200;" fill="rgb(50, 49, 63)" stroke="none" stroke-width="1px">1M</text><text x="718.25" y="0" dx="0em" dy="0.95em" style="text-anchor: middle; visibility: hidden; font-family: &quot;Helvetica Neue&quot;, sans-serif; font-size: 12px; font-weight: 200;" fill="rgb(50, 49, 63)" stroke="none" stroke-width="1px">1.1M</text></g><line x1="0" y1="0" x2="718.25" y2="0" fill="rgb(0, 0, 0)" stroke="rgb(204, 204, 204)" stroke-width="1px"></line></g></g></g></g></svg>