<svg viewBox="0 0 776.25 400" xmlns="http://www.w3.org/2000/svg"><g><g><g><g><g><line x1="70" y1="378" x2="65" y2="378" style="visibility: inherit;" fill="rgb(0, 0, 0)" stroke="rgb(204, 204, 204)" stroke-width="1px"></line><line x1="70" y1="336" x2="65" y2="336" style="visibility: inherit;" fill="rgb(0, 0, 0)" stroke="rgb(204, 204, 204)" stroke-width="1px"></line><line x1="70" y1="294" x2="65" y2="294" style="visibility: inherit;" fill="rgb(0, 0, 0)" stroke="rgb(204, 204, 204)" stroke-width="1px"></line><line x1="70" y1="252" x2="65" y2="252" style="visibility: inherit;" fill="rgb(0, 0, 0)" stroke="rgb(204, 204, 204)" stroke-width="1px"></line><line x1="70" y1="210" x2="65" y2="210" style="visibility: inherit;" fill="rgb(0, 0, 0)" stroke="rgb(204, 204, 204)" stroke-width="1px"></line><line x1="70" y1="168" x2="65" y2="168" style="visibility: inherit;" fill="rgb(0, 0, 0)" stroke="rgb(204, 204, 204)" stroke-width="1px"></line><line x1="70" y1="126" x2="65" y2="126" style="visibility: inherit;" fill="rgb(0, 0, 0)" stroke="rgb(204, 204, 204)" stroke-width="1px"></line><line x1="70" y1="84" x2="65" y2="84" style="visibility: inherit;" fill="rgb(0, 0, 0)" stroke="rgb(204, 204, 204)" stroke-width="1px"></line><line x1="70" y1="42" x2="65" y2="42" style="visibility: inherit;" fill="rgb(0, 0, 0)" stroke="rgb(204, 204, 204)" stroke-width="1px"></line><line x1="70" y1="0" x2="65" y2="0" style="visibility: inherit;" fill="rgb(0, 0, 0)" stroke="rgb(204, 204, 204)" stroke-width="1px"></line></g><g transform="translate(60, 0)"><text x="0" y="378" dx="0em" dy="0.3em" style="text-anchor: end; visibility: hidden; font-family: &quot;Helvetica Neue&quot;, sans-serif; font-size: 12px; font-weight: 200;" fill="rgb(50, 49, 63)" stroke="none" stroke-width="1px">0.63</text><text x="0" y="336" dx="0em" dy="0.3em" style="text-anchor: end; visibility: inherit; font-family: &quot;Helvetica Neue&quot;, sans-serif; font-size: 12px; font-weight: 200;" fill="rgb(50, 49, 63)" stroke="none" stroke-width="1px">0.635</text><text x="0" y="294" dx="0em" dy="0.3em" style="text-anchor: end; visibility: inherit; font-family: &quot;Helvetica Neue&quot;, sans-serif; font-size: 12px; font-weight: 200;" fill="rgb(50, 49, 63)" stroke="none" stroke-width="1px">0.64</text><text x="0" y="252" dx="0em" dy="0.3em" style="text-anchor: end; visibility: inherit; font-family: &quot;Helvetica Neue&quot;, sans-serif; font-size: 12px; font-weight: 200;" fill="rgb(50, 49, 63)" stroke="none" stroke-width="1px">0.645</text><text x="0" y="210" dx="0em" dy="0.3em" style="text-anchor: end; visibility: inherit; font-family: &quot;Helvetica Neue&quot;, sans-serif; font-size: 12px; font-weight: 200;" fill="rgb(50, 49, 63)" stroke="none" stroke-width="1px">0.65</text><text x="0" y="168" dx="0em" dy="0.3em" style="text-anchor: end; visibility: inherit; font-family: &quot;Helvetica Neue&quot;, sans-serif; font-size: 12px; font-weight: 200;" fill="rgb(50, 49, 63)" stroke="none" stroke-width="1px">0.655</text><text x="0" y="126" dx="0em" dy="0.3em" style="text-anchor: end; visibility: inherit; font-family: &quot;Helvetica Neue&quot;, sans-serif; font-size: 12px; font-weight: 200;" fill="rgb(50, 49, 63)" stroke="none" stroke-width="1px">0.66</text><text x="0" y="84" dx="0em" dy="0.3em" style="text-anchor: end; visibility: inherit; font-family: &quot;Helvetica Neue&quot;, sans-serif; font-size: 12px; font-weight: 200;" fill="rgb(50, 49, 63)" stroke="none" stroke-width="1px">0.665</text><text x="0" y="42" dx="0em" dy="0.3em" style="text-anchor: end; visibility: inherit; font-family: &quot;Helvetica Neue&quot;, sans-serif; font-size: 12px; font-weight: 200;" fill="rgb(50, 49, 63)" stroke="none" stroke-width="1px">0.67</text><text x="0" y="0" dx="0em" dy="0.3em" style="text-anchor: end; visibility: hidden; font-family: &quot;Helvetica Neue&quot;, sans-serif; font-size: 12px; font-weight: 200;" fill="rgb(50, 49, 63)" stroke="none" stroke-width="1px">0.675</text></g><line x1="70" y1="0" x2="70" y2="378" fill="rgb(0, 0, 0)" stroke="rgb(204, 204, 204)" stroke-width="1px"></line></g></g><g transform="translate(70, 0)" clip-path="url(#clip_0)"><clipPath id="clip_0"><rect width="706" height="378"></rect></clipPath><g><g><g><line x1="0" y1="0" x2="0" y2="378" fill="rgb(0, 0, 0)" stroke="rgb(60, 60, 60)" stroke-width="1px" opacity="0.25"></line><line x1="58.854166666666664" y1="0" x2="58.854166666666664" y2="378" fill="rgb(0, 0, 0)" stroke="rgb(60, 60, 60)" stroke-width="1px" opacity="0.25"></line><line x1="117.70833333333333" y1="0" x2="117.70833333333333" y2="378" fill="rgb(0, 0, 0)" stroke="rgb(60, 60, 60)" stroke-width="1px" opacity="0.25"></line><line x1="176.5625" y1="0" x2="176.5625" y2="378" fill="rgb(0, 0, 0)" stroke="rgb(60, 60, 60)" stroke-width="1px" opacity="0.25"></line><line x1="235.41666666666666" y1="0" x2="235.41666666666666" y2="378" fill="rgb(0, 0, 0)" stroke="rgb(60, 60, 60)" stroke-width="1px" opacity="0.25"></line><line x1="294.27083333333337" y1="0" x2="294.27083333333337" y2="378" fill="rgb(0, 0, 0)" stroke="rgb(60, 60, 60)" stroke-width="1px" opacity="0.25"></line><line x1="353.125" y1="0" x2="353.125" y2="378" fill="rgb(0, 0, 0)" stroke="rgb(60, 60, 60)" stroke-width="1px" opacity="0.25"></line><line x1="411.9791666666667" y1="0" x2="411.9791666666667" y2="378" fill="rgb(0, 0, 0)" stroke="rgb(60, 60, 60)" stroke-width="1px" opacity="0.25"></line><line x1="470.8333333333333" y1="0" x2="470.8333333333333" y2="378" fill="rgb(0, 0, 0)" stroke="rgb(60, 60, 60)" stroke-width="1px" opacity="0.25"></line><line x1="529.6875" y1="0" x2="529.6875" y2="378" fill="rgb(0, 0, 0)" stroke="rgb(60, 60, 60)" stroke-width="1px" opacity="0.25"></line><line x1="588.5416666666667" y1="0" x2="588.5416666666667" y2="378" fill="rgb(0, 0, 0)" stroke="rgb(60, 60, 60)" stroke-width="1px" opacity="0.25"></line><line x1="647.3958333333333" y1="0" x2="647.3958333333333" y2="378" fill="rgb(0, 0, 0)" stroke="rgb(60, 60, 60)" stroke-width="1px" opacity="0.25"></line><line x1="706.25" y1="0" x2="706.25" y2="378" fill="rgb(0, 0, 0)" stroke="rgb(60, 60, 60)" stroke-width="1px" opacity="0.25"></line></g><g><line x1="0" y1="378" x2="706.25" y2="378" fill="rgb(0, 0, 0)" stroke="rgb(60, 60, 60)" stroke-width="1px" opacity="0.25"></line><line x1="0" y1="336" x2="706.25" y2="336" fill="rgb(0, 0, 0)" stroke="rgb(60, 60, 60)" stroke-width="1px" opacity="0.25"></line><line x1="0" y1="294" x2="706.25" y2="294" fill="rgb(0, 0, 0)" stroke="rgb(60, 60, 60)" stroke-width="1px" opacity="0.25"></line><line x1="0" y1="252" x2="706.25" y2="252" fill="rgb(0, 0, 0)" stroke="rgb(60, 60, 60)" stroke-width="1px" opacity="0.25"></line><line x1="0" y1="210" x2="706.25" y2="210" fill="rgb(0, 0, 0)" stroke="rgb(60, 60, 60)" stroke-width="1px" opacity="0.25"></line><line x1="0" y1="168" x2="706.25" y2="168" fill="rgb(0, 0, 0)" stroke="rgb(60, 60, 60)" stroke-width="1px" opacity="0.25"></line><line x1="0" y1="126" x2="706.25" y2="126" fill="rgb(0, 0, 0)" stroke="rgb(60, 60, 60)" stroke-width="1px" opacity="0.25"></line><line x1="0" y1="84" x2="706.25" y2="84" fill="rgb(0, 0, 0)" stroke="rgb(60, 60, 60)" stroke-width="1px" opacity="0.25"></line><line x1="0" y1="42" x2="706.25" y2="42" fill="rgb(0, 0, 0)" stroke="rgb(60, 60, 60)" stroke-width="1px" opacity="0.25"></line><line x1="0" y1="0" x2="706.25" y2="0" fill="rgb(0, 0, 0)" stroke="rgb(60, 60, 60)" stroke-width="1px" opacity="0.25"></line></g></g></g><g><g><line x1="0" y1="5669.999999999995" x2="706.25" y2="5669.999999999995" fill="rgb(0, 0, 0)" stroke="rgb(153, 153, 153)" stroke-width="1.5px"></line></g></g><g><g><line x1="58.854166666666664" y1="0" x2="58.854166666666664" y2="378" fill="rgb(0, 0, 0)" stroke="rgb(153, 153, 153)" stroke-width="1.5px"></line></g></g><g><g><g><g><g><path stroke="rgb(255, 112, 67)" stroke-width="2px" d="M71.40128645833333,387.183427376727L71.99630208333333,375.8099973881661L72.80319270833334,389.98607602046144L73.06568229166666,373.99165594502244L73.16867708333334,394.14497924017184L73.40703645833334,315.23691841559264L73.716609375,336.14207556229786L76.40977604166666,353.9352877518695L76.87060416666667,366.36118699149773L76.92592708333333,319.5667500146932L77.64983333333333,380.7401318701484L77.943515625,303.6940911490533L78.38256770833333,306.4665214752299L78.716859375,274.87988598677754L78.73804687500001,282.17790491628426L78.769828125,312.80671631512865L79.17356770833334,353.9340565469344L80.01400520833333,375.11051405378845L80.411859375,426.3164019169976L80.429515625,376.53976102718354L81.07985416666666,393.92385661932144L81.14577083333333,383.3542338618519L81.6425,328.01260707086146L81.713125,433.0575241921268L83.14386979166667,368.33442105373956L84.53753645833334,324.25063928020984L84.74588020833333,252.3004636761874L84.86770833333334,315.88033161178174L85.55747916666667,331.27819896711475L86.12365625,267.0168392715135L86.17015104166667,294.960010102855L86.95349999999999,281.97596600738393L87.21069270833334,263.68549949578096L89.99155208333333,306.9613931575615L90.55419791666667,313.6768225430974L92.11913020833333,317.7060801744173L93.42863541666667,327.12372821329376L94.27201562500001,311.7742369279763L94.44622395833333,328.8145421567873L95.42555729166666,344.2886451854298L96.327203125,397.32324051701977L96.82746354166667,322.39402441885414L97.48780729166667,307.1864413541938L98.16109895833333,326.06186481251683L98.29881770833333,325.1371055360703L98.54541666666667,287.8322099158805L99.57242187499999,349.44939270673063L100.43816666666666,293.6697157326812L100.89252083333332,321.4517760338465L101.17384374999999,317.12113237751026L101.203859375,335.5226260207446L101.23622916666666,294.0635222066855L101.82300520833333,228.93807326969085L104.88283333333334,238.86285731325427L105.30187500000001,202.81776779371418L106.16703125,237.1906606762284L106.29827604166667,292.81446316293955L108.64538020833334,254.43863784344273L108.93258854166666,240.1632094089462L109.9278125,205.34795234824924L109.97783854166667,203.70870465174784L110.062,241.22516938528702L110.28858854166667,300.48508827973217L110.72646354166667,262.5409595077567L111.04251041666666,283.524615758975L111.43859895833334,233.11476945538547L111.44801562500001,211.61892843043316L111.80702604166667,270.47133035537865L111.96240104166668,318.032784861787L112.79224479166666,330.81969761995254L113.07062499999999,308.74189868061376L113.86574479166667,255.24523266845097L114.11881770833334,321.14713960107133L114.98750520833335,350.1882437063213L115.048125,245.11297292667433L115.53131770833333,208.31781045888536L116.81021874999999,184.4907396810925L117.6400625,177.19439040289348L118.21330208333335,153.56667429605727L118.49403645833334,284.64003128051525L118.85186979166666,232.03404547118953L119.474546875,251.2204806884751L120.25907291666667,274.9823551702874L120.58983333333333,282.23938639929145L120.6063125,228.84368524533707L121.10657291666668,272.05611768711924L122.320734375,231.48359050362868L122.76155208333334,296.39011424785633L124.372390625,247.83416200879705L124.59309375,246.70056396248063L125.30169791666667,163.7702582688463L126.59295833333333,159.51218166418911L126.84132291666667,221.70734905283499L127.543453125,225.77435602593934L127.741203125,341.9646269670038L128.08726562500001,324.1787227744408L128.41390625,227.75728707042651L130.18070833333334,280.15434553937484L130.26310416666666,236.34252721498262L130.304890625,271.30550297754843L130.559140625,213.5332884350891L130.77690104166666,229.61998641249377L131.02938541666666,234.02208530757915L132.59255208333335,210.4133446446302L135.40636979166666,213.74803348965867L136.35333333333332,250.74891355387805L136.46868750000002,293.9493214294462L137.94004166666667,284.8694993975848L137.94769270833334,258.4217263414322L137.99771875000002,233.80299575053846L138.23490104166666,247.03173069312115L138.66924479166667,104.4690651187534L139.291921875,234.18138566548993L139.29486458333332,198.25891150793683L139.51674479166667,265.95526679611936L140.898640625,266.3230933204695L140.92571354166668,264.79381593796063L141.23528645833335,230.626356319979L141.28236979166667,246.87572033190517L141.69140625,230.37533873905943L141.83206770833334,232.72512313479334L141.96919791666667,227.13510058375712L142.9520625,190.53099359305259L143.73717708333334,142.31852939862992L143.77190104166667,230.6410642334155L144.964875,287.13473200013266L145.190875,289.5308124971986L145.658765625,273.4685275526407L146.354421875,258.58103642294157L147.58153125,289.89852839368234L147.643328125,263.18911703620927L147.74867708333335,271.66349692460705L147.88639583333335,227.74807145188382L148.76332291666668,227.64881616824988L150.189359375,264.33930305239113L151.05039583333334,193.60360853431584L151.33171875,147.6622452292324L151.62186979166665,72.8473471375396L153.16914583333332,160.95838157964334L154.66227604166667,199.82501559634525L154.96066666666667,158.3949826549266L155.74107291666667,177.28689613287267L156.23603645833333,155.37215103116412L156.31490104166667,170.2232772672581L156.434375,121.38403311755695L157.27834375,123.58040651909386L157.3736875,147.64828396577693L157.51964583333333,254.83899708234702L158.50780729166667,231.653358195087L158.88447395833333,235.24210837713528L159.01689583333334,170.89517156619812L159.882640625,169.03704953395763L159.88852604166667,181.92216296317247L160.65539583333333,165.1532043178204L160.72660937499998,190.0918958878118L160.99910416666665,166.55509747836592L161.641203125,204.9330184326987L163.48333854166665,184.20983776250017L163.7275833333333,231.27582254885755L164.003609375,187.76550688075508L164.02715104166666,172.15935753421522L164.31847916666666,217.04564122341043L164.97705729166668,189.72743813980807L165.409046875,194.33639612668279L165.44377083333333,205.85183767600935L166.019953125,197.011142659927L166.52727604166668,242.456752353158L166.71678645833333,220.72406476333512L166.90923958333332,209.43442550656053L167.76851041666666,179.91058854673406L168.45945833333334,174.44629972227938L168.96442708333333,165.91780653624838L168.99385416666667,136.30068392174914L169.46645312500002,99.28050381313244L170.27805208333334,148.81830228787993L170.87601041666665,106.79107483281109L171.980703125,186.57473835976896L173.79458854166666,262.44490977306333L173.85520833333334,227.46703932392128L173.98409895833333,180.23031705443609L174.63561458333334,185.13817688122148L175.886265625,142.58298623737542L176.14286979166667,132.79983179674647L176.68668229166667,175.9299925381311L177.38704687499998,154.55800887431903L177.6925,157.48477862171083L180.15848958333333,169.740880524467L180.71171875000002,226.0945950718822L181.0407135416667,242.40669028592686L181.71106250000003,218.9440542258775L181.82053125,147.11635242688422L182.44085416666667,153.01978475324978L182.560328125,203.8119242577122L184.27180729166668,132.78715455462745L184.72380729166665,133.92222597557407L185.58484374999998,157.35332223390392L185.95150520833334,117.16200669178346L185.992703125,164.79712390642717L186.0097708333333,233.62818088377352L187.07797395833333,257.42688182738345L188.04730208333334,233.20608904210889L188.25152604166666,241.42366677670546L188.489296875,263.8541466602618L189.08078125,198.5624345903951L190.41500520833333,222.38744740279668L191.18481770833336,194.6824951445584L192.009953125,192.05951043817518L192.06763020833333,134.48577302010702L192.07469270833334,80.69142375774311L192.695015625,97.41486760608637L193.14230729166664,49.699014023734264L193.38478645833334,105.06942176568145L193.38655208333336,126.04165305940896L193.80088541666666,175.37503188996635L194.820828125,106.97495237677816L195.43114583333335,179.68497142606657L196.46050520833333,200.56092944987904L197.112609375,186.83650426416617L197.28799479166668,196.10198266714255L198.95474479166666,213.9112830603688L199.28903645833333,138.8467698362218L199.71455208333333,212.80804855029194L200.15948958333334,139.9348024272937L201.00522395833335,253.7108547534957L201.06290104166666,327.2266063121808L201.31891666666667,241.83603054451058L201.48194270833335,218.60165838102716L202.98802083333334,176.66106178581816L203.66484375,191.74669047725342L204.52234895833334,192.04800093491153L205.3775,94.2288806695891L205.79889583333335,131.78734175319437L206.00370833333332,133.32233829471437L206.50102604166665,81.74333621962683L206.76586979166666,166.29597502889564L207.04660416666667,157.5276651259804L207.20551041666664,115.51663912990989L208.01357812499998,92.05999682938665L208.59211458333334,139.23607820627504L208.69746354166665,134.2916335723247L210.07700520833336,185.5749400890734L210.8197447916667,209.34503081064682L210.90390624999998,190.35699178350694L211.35178645833335,156.21411496146098L212.43588020833332,116.47848232831717L213.35341666666665,230.88699593690748L213.40403125,259.2821174535021L213.55410937500002,248.31921706634037L214.19797395833334,239.99150353692343L214.3539375,199.99480866207077L214.79416666666665,154.99691190012362L214.9777916666667,189.2482406001567L215.171421875,222.04885090001144L215.22615625,171.7292838371261L216.5227135416667,134.53765041091762L216.98766145833335,169.97259024654988L218.10942187499998,143.98347403928784L218.26715104166666,140.64001766637048L218.3795625,136.88397054550092L218.98046354166667,164.38028886721762L219.1399583333333,121.37818667177191L219.37949479166667,219.82683189442056L219.48955208333334,200.1460190280091L220.93971874999997,198.83757136248389L221.01269791666667,173.55247606028868L222.13857812499998,193.38148563617327L222.986078125,187.77895813890694L223.08554166666667,184.41744164054603L223.34038020833333,213.90045163288707L224.17787499999997,133.5903510883744L224.39740104166668,143.15421065302453L225.20546875000002,164.64248633749332L225.82696875000002,158.2855452082582L226.178328125,184.2213271249548L226.5214479166667,191.03272951777117L226.90458854166667,230.11963771066257L227.84978645833334,195.8218627350406L228.80145833333333,126.24314434390536L229.1569375,199.9959533635456L230.0115,202.24747855804424L231.78301041666668,121.34844708050463L231.88600520833333,132.30912165406497L232.71408333333335,140.63549969531923L232.81119270833335,136.88125976287105L233.58100520833332,152.1288493178054L234.44616145833336,112.27734964500445L234.927,133.86635638124142L235.11356770833333,55.81974707154268L235.906921875,108.74186159436533L236.493109375,122.99519706526226L236.8474114583333,143.79721169924122L236.88448958333333,208.77842047962775L237.78436979166668,177.76701223345546L240.366890625,141.66023404295407L240.62820312499997,179.49606031713012L240.71883854166666,191.6977162989207L241.15318229166667,174.51868318511387L241.25264583333333,136.21129001971067L241.26912499999997,114.97682741758803L242.26670312500002,173.98605639623162L242.923515625,200.64172729782223L243.82751562500002,199.1349963243723L244.34425520833335,156.2309977946235L246.0139479166667,230.23867878541614L246.25113020833334,188.89319391981013L246.4977291666667,206.08586294612516L246.66428645833335,149.90147771335356L246.85497395833335,145.94079316792883L247.15277604166667,105.06456936084084L247.35346875000002,98.0387683193855L247.69246875,83.32324764019097L248.00145312499998,133.99402869275727L248.5929375,124.1465106757382L248.9819635416667,121.73794645976398L249.72058333333334,129.04267441577585L249.94717187499998,156.17556459514392L250.1666979166667,263.4553120542053L252.51380208333333,228.07328069260683L253.100578125,191.09390165836243L253.2677239583333,168.90627423781467L253.64321354166668,230.84375119124877L254.03694791666666,101.75617060610722L254.219984375,71.55370236366525L254.23587500000002,123.43215466099741L254.98979687500002,86.30926609371699L255.69074999999998,111.28561306199163L255.70781770833335,119.27132778287381L256.834875,145.06283672404527L257.03027083333336,122.03772873730853L258.1979375,146.72267729670628L258.2144166666667,193.0335663237031L258.30505208333335,198.0700463341382L259.99475520833334,143.34201444904298L260.76221354166665,143.75528877806866L261.60853645833333,147.50319996972215L261.62619270833335,111.25193333327383L261.73683854166666,145.50111994564364L262.06524479166666,50.550591858743815L263.143453125,116.08040852100828L263.77495833333336,144.89825846404565L264.46355208333335,177.93892837554677L266.3904375,229.26345048541114L266.3933802083333,267.05805693980574L266.7300260416667,233.73487421820462L269.60093229166665,166.4908844766018L269.6474270833333,187.3945573888418L269.6674375,245.43666767610299L270.0270364583333,247.01204065998294L270.36544791666665,198.95721104454944L270.60557291666663,175.37423316664714L270.99342187499997,138.47459330574938L273.27990625,95.33472928056892L273.53651041666666,134.20082421690063L273.55298958333333,134.7704277729387L275.6234791666667,178.8623234209656L277.10719270833334,207.06743410690052L277.2766927083333,218.740380355498L277.63099479166664,211.74416145609672L279.196515625,102.5464301164555L279.471953125,145.52793817851594L279.58730729166666,211.5668296643114L279.88040104166663,137.44009779858715L280.90034375,82.46401862483134L280.9527239583333,107.22849128354187L282.34344791666666,59.08713482444654L282.39877083333334,79.2023743547507L282.724234375,115.77134450420715L282.8807864583333,76.46286010828601L283.4722708333333,128.12762260488864L284.2132447916667,225.62666702301567L284.33625,219.37608032245242L285.74109895833334,203.37571495067442L285.88646875,295.2753488617617L286.19074479166665,252.41522266849717L286.99998958333333,224.94917365542005L287.0370677083333,204.9695976533353L287.1977395833334,210.48178529488175L287.70153124999996,173.53911123125025L288.158828125,114.62346673875066L289.10402604166666,154.52413344901257L289.70551562500003,118.96444001508638L291.276921875,223.62870406337294L291.68478125,316.17720908658276L292.42222395833335,271.9562319918665L292.80536458333336,138.6736724379178L293.05549479166666,114.70428357139298L293.2091041666667,124.82247668275286L293.8482604166667,80.14356611829481L294.38736458333335,70.83615302241765L296.10119791666665,112.50178527353427L296.27658333333335,114.7511112184423L296.743296875,152.85074683970825L297.71203645833333,137.21051486102664L298.69490104166664,112.07621545653348L298.94915104166665,147.74566251671763L300.896046875,128.8973441042686L301.3780625,131.58833970535872L302.28088541666665,201.45309728329792L303.108375,211.87183166709758L303.179,198.8731657574604L303.47327083333334,206.8239261573572L303.749296875,122.34434234297441L304.37138541666667,113.656552000023L304.60797916666667,206.4439846057752L304.7515833333333,102.86647087210804L305.04761979166665,119.46996263190749L305.5631822916667,103.18205768778682L305.96397916666666,133.65930136987433L306.9427239583333,123.94567428200807L307.5165520833333,156.6173111091221L308.082140625,179.7204400712347L308.24987500000003,218.08234415138344L309.0055625,188.5994865994735L309.34809375,142.90959849960137L309.911328125,127.74567899111835L310.19441666666665,108.14748750331336L310.9024322916666,38.63845244766691L311.0878229166667,84.43309817148167L312.00418229166667,113.65985890288874L312.35730729166664,120.69587528741204L313.1465416666666,149.41751182100668L313.26307291666666,271.6504937411636L314.81682291666664,227.74026954181755L315.17701041666663,218.8940682650074L315.26470312500004,234.58642760756427L315.58192708333337,254.50188326741946L316.8166875,208.70103650036916L317.12096354166664,154.9705284401382L319.13671875,168.23233041552328L319.159671875,223.43949170939757L319.36389583333334,141.0637484314004L319.60990625,105.63828911316165L320.0719114583333,140.382960116457L320.681640625,152.4796959612321L320.96178645833334,159.73773746809601L322.228328125,146.59262912941728L322.75271875,219.2055374233291L322.8975,208.52330910255694L323.107609375,130.3640655701767L323.23944270833334,151.71847939642703L323.36303645833334,143.53104758353578L323.9521666666667,103.61872201020424L323.9715885416667,147.9212866118843L325.19752083333333,153.5027452642502L326.063265625,179.6016738614303L327.037890625,176.01092420821604L328.67050520833334,124.85662128213119L329.5721510416667,92.41406622936222L329.7987395833333,72.9485331977005L330.17422916666663,119.01913327006042L331.54494270833334,73.16141320483462L332.2453072916667,101.64692803154384L333.27348958333334,115.23809006172405L333.73902604166665,116.3928940913558L334.64479166666666,122.33569640049231L336.74,6.901391137415317L336.9353958333333,138.89074122236636L337.02720833333336,76.33451149062216L337.08959375,119.30074694869484L338.69454687499996,155.5805282778603L339.19127604166664,224.59827691239417L339.25836979166667,183.75897949887704L339.39020312499997,185.50540105076655L339.527921875,190.05320057613852L339.66034375,147.28197375144458L339.66622916666665,181.1191308451053L340.46429166666667,161.17143845274254L340.6108385416667,173.7028497202052L340.78857812499996,198.72162972348022L340.86096875,203.2330579427308L341.233515625,120.18982141419855L341.5931145833333,126.36382609131746L342.028046875,145.81838911487358L342.12339062499996,155.74095336028128L344.26156249999997,175.69447855608547L344.2786302083333,121.16660702500883L344.34336979166665,167.19988410636356L345.1949895833333,165.06990376093756L346.3173385416667,118.29200901376481L347.54268229166667,130.47525881402086L349.7138125,169.2851285855321L352.46701041666665,178.57106379987852L352.60590625000003,157.89262492848644L353.5246197916667,147.23553490277143L353.9418958333334,121.59137434742468L354.0984479166667,85.20479790557391L355.54920312499996,30.122958851987278L357.86099479166666,93.32378866263326L358.2641458333334,152.24436665766322L358.8732864583334,143.84657994027694L358.873875,70.55794796416558L359.30115625,128.08482218426113L359.71019270833335,215.10094671631825L360.07449999999994,69.56063478699309L360.6948229166667,92.48636752075572L361.6353125,139.49190062109628L362.2632864583333,157.1951804269784L362.3550989583334,146.81706820186622L362.9089166666667,105.59033438120213L363.09371875,115.85416057440051L363.95887500000003,122.01245629031874L364.21312500000005,143.20756723427397L364.3114114583333,126.17448693480202L366.986921875,133.45477226952426L367.21174479166666,102.82287671315584L367.9586041666667,80.94379278509581L368.2346302083334,76.56620891385506L369.6129947916666,129.93980545695587L370.1132552083334,167.21388327417307L370.189765625,186.07838337026524L370.36632812499994,256.89697661639747L370.4357760416667,239.888239375601L370.5240572916666,275.18290357103916L371.0201979166667,247.3596486825402L371.093765625,193.91585596672618L371.85474999999997,154.8494868771557L372.35089062500003,194.4097054777343L372.492140625,137.64586334096197L372.80053645833334,178.83761146466009L373.28490625,161.552500121594L373.54386458333335,154.68158018159946L374.44845312499996,213.55886800031695L374.68916666666667,143.88524069154755L374.8786770833333,137.08113106348762L376.6284114583333,118.99867863809288L377.63599479166663,144.8992472371773L378.15038020833333,144.6896284509498L378.8901770833333,204.06375036768907L379.6911822916666,152.18815676053038L380.93123958333337,163.06296081352062L381.1007395833334,106.58780319099338L381.6351354166667,226.70276202323788L382.23603645833333,118.52168391682375L382.392,114.86310381017813L384.49780208333334,133.66783558322646L385.3023385416667,155.4507147013762L386.4029114583334,180.77045552370646L386.63185416666664,162.7122065570211L386.691296875,181.62740404285532L386.956140625,198.22644242571286L387.406375,178.43591886118952L387.4440416666667,107.0615112623924L387.8012864583334,172.73681329735305L387.9372395833333,178.8921013298527L387.99844791666663,131.8352474464717L388.072015625,93.10109506212143L388.40571875,113.61073714591629L389.9194479166667,162.66636217890763L390.5091666666667,101.09972384726211L391.1183072916667,162.15984765979698L391.34371875,149.79586854155718L391.4455364583333,210.6274410162916L391.58384375,177.12645125833424L391.94638541666666,185.0258307006797L392.2995104166667,175.76547171752782L392.92571875000004,177.2093497877193L393.00988020833336,153.5756499269522L393.6925885416667,99.14544336193342L393.84855208333335,104.9873327743619L394.4624010416666,111.99241301605713L396.15445833333337,166.94548786395524L396.70415625,103.66719925829062L397.3715625,123.45034625785462L398.7110833333333,93.3202745119143L398.92884375,108.49212465282699L400.07002604166667,107.0951946830537L400.994625,172.75702334974892L401.2841875,171.90413390120614L402.048703125,106.64238688064154L402.3359114583333,203.98545883126582L402.9750677083333,283.3911818386763L403.26874999999995,233.0347091032057L403.514171875,201.0708521648042L403.5948020833333,134.64245789312076L404.20041145833335,68.53542133011092L404.56766145833336,102.37127950094748L405.23094791666665,110.42278105200921L405.622328125,157.25364192832419L405.64292708333335,153.85223856275613L405.68765625,109.81143659773664L405.94896874999995,170.88682190432112L406.37566145833335,165.53209314259237L406.38978645833333,179.81918912835297L408.21308854166665,169.14154017989256L409.8109791666667,150.48493745937662L411.862046875,162.04102923282895L411.87264062500003,244.2245374310548L412.165734375,225.28468240431206L412.81136458333333,192.92088955122992L414.4039583333333,217.25254708217844L414.4392708333333,105.8514614921047L415.98007291666664,112.51089024670296L417.1365572916667,88.50657420234319L417.3560833333333,128.35395787284608L418.1353125,171.51229461506549L418.310109375,143.1573233632777L419.30239062500004,176.89436731508547L420.7578541666667,132.38658033472973L421.54708854166665,203.68201495803967L422.23450520833336,249.9592223262639L425.56859375,253.22552004431776L425.7563385416667,185.1853654323525L425.849328125,144.36127266517335L426.45552604166664,130.36685705918728L426.95519791666663,139.47014093839257L427.237109375,160.6820712115956L427.74148958333336,164.6591626183141L430.19394270833334,156.54557767963078L430.4140572916666,132.4273199048979L431.2197708333333,154.70640529437944L431.4699010416667,162.82393663671039L433.03130208333334,174.6943486305859L435.2871822916666,211.56654242114908L435.31013541666664,182.93983199260634L436.425421875,172.7638991955639L436.5955104166667,103.65829946301739L437.25055729166667,189.9449930292511L437.3388385416667,211.96706257475267L438.533578125,223.43033100493432L438.73368229166664,200.5581451971997L439.186859375,206.08494052408162L439.20098437499996,288.1510177202107L439.84308333333337,269.14070409220926L440.092625,234.98446250964676L440.8524322916667,207.49062410002682L441.7729114583333,112.24432105425433L442.562734375,112.84665938975434L443.57561458333333,191.9580623910546L443.61445833333335,165.9248240831926L444.2589114583334,96.0549078013558L444.9221979166667,75.13303814089699L445.29886458333334,22.329729424455365L446.026890625,86.8978777089942L446.3523541666667,171.13867321963448L446.46888541666664,142.93315052601946L446.803765625,176.7598636127309L447.3593489583334,106.05587811331668L448.7606666666667,130.133473462228L449.2020729166667,114.83008407733655L449.339203125,117.89806379784284L450.2914635416667,133.738838278706L450.40446354166664,125.74336972442566L450.7346354166667,138.44602183465568L451.52269270833335,149.56755969503217L451.599203125,133.49062927710258L451.66923958333336,141.3444042691429L451.70572916666663,132.05668261580638L451.7663489583333,149.2341030295669L452.04002083333336,156.0404084119789L452.25425,184.62421834430654L452.72449479166664,154.52462446666726L454.614890625,180.21480138288146L456.96729166666665,181.62892088405064L457.5275833333333,198.22735253043007L458.30445833333334,188.9365049783413L459.8929322916666,153.6118495812426L460.1789635416667,169.16709639730485L460.197796875,206.5002177840613L461.6603229166667,230.65006391323487L461.83806250000004,187.39005169938204L462.184125,100.18397761386728L462.36775,166.86031981111864L462.761484375,161.36621858955178L463.3129479166667,179.0696376936474L463.59309375,131.9417692647483L463.8838333333333,129.91504820740863L464.20341145833333,126.94904227588555L464.3693802083333,133.91950547417363L466.2226979166667,159.10166323018296L466.2533020833333,205.71107804675242L466.29214583333334,203.92658007084898L466.9642604166667,185.35594804250988L467.12728645833334,151.46351541974394L467.32974479166666,157.3780558460849L467.61871875,162.67675339900828L467.73113020833335,123.8560119850838L467.82941666666665,158.31368729969313L468.919984375,126.48829248845837L469.60445833333335,105.64288203299253L469.76513020833335,44.135782625557056L470.6032135416667,49.23148292677479L471.04520833333333,92.53888975606532L471.17115624999997,169.27336055652086L473.143359375,197.81410979399521L473.4552864583333,165.93850593071835L473.48706770833337,132.81315696419284L474.38165104166666,125.1879609357174L475.31390104166667,80.36285667007314L476.5451302083333,90.21763389340106L476.64459375,55.88051357883842L476.80703124999997,58.0282947958633L477.806375,94.31703028328019L478.5626510416667,107.34020481852741L479.09528124999997,101.15412289111691L479.5461041666666,81.69251378899196L479.9345416666667,145.26560173347787L480.2547083333333,99.40933433720602L480.71259375,54.39564065664581L481.20049479166664,121.88738439398753L481.5748072916667,104.63251074503489L481.9944375,101.27947974414036L482.05152604166665,108.0177279008056L482.24456770833336,71.81069014624507L482.58827604166663,90.33645414206842L484.64052083333337,120.70181907948017L485.0213072916667,89.92118490777125L485.5033229166667,160.7026441874614L486.7080677083333,126.17149305239377L487.2348125,91.45281572279362L487.27777604166664,126.62175619087878L487.6615052083333,131.9729602544442L487.9740208333333,152.68381620698733L487.9834375,149.3603698328347L488.032875,208.61616849393934L489.3353177083333,198.66974115068442L489.6849114583333,169.95183133897032L490.5836145833333,198.22119226346527L490.85846354166665,206.4327420609601L491.8842916666667,151.85957847937368L491.94844270833335,161.11584054770802L492.5640572916667,213.91947762574438L492.6388020833333,117.85160646680498L493.76703645833334,145.9609772315235L494.7981614583333,162.82659969035385L495.505,164.19590640845067L495.59033854166665,130.01762395371233L496.51258333333334,156.7605343179058L496.99283333333335,134.30626718498152L497.14291145833334,194.3337870138706L497.3341875,162.100338965525L499.46765104166667,177.76013662211255L500.302203125,125.90614873046906L500.3098541666667,93.04378269836423L500.3651770833333,104.82628297045903L500.61589583333335,138.14578313371575L500.90781250000003,133.63745652878856L500.92841145833336,106.43243386295234L501.21032291666666,128.60943361489083L501.60758854166664,133.16556670885214L502.15905208333334,109.6492465652288L502.18318229166664,71.03962804777962L502.2008385416667,124.87368336858447L503.90113541666665,179.92416996682945L504.02590625,186.70446192577663L504.2083541666667,159.27271720978794L504.33724479166665,216.31355021723022L504.3743229166667,168.28810342745703L504.77276562500003,120.2229288136765L505.0011197916667,135.1337572882056L506.266484375,159.8302143186029L506.9768541666667,158.89812859116165L507.81022916666666,137.33879704605508L508.15746875,126.15337168771657L508.8860833333333,138.69202301263022L509.43872395833336,72.71513369893512L510.1255520833333,104.8791069222417L510.4733802083333,153.92743745046442L511.0042447916667,148.3563690101963L512.0524375,229.0138481089994L512.356125,198.65833556828042L512.80459375,215.4450948010515L513.53203125,178.2670702320711L514.3165572916666,120.96018873348083L514.543734375,133.82613994296892L516.673078125,138.045764074424L516.7448802083333,98.57737833601232L517.31046875,95.89642700160755L518.2009322916667,148.53782949808408L518.26390625,206.37267099596926L518.4216354166666,176.32356254325998L521.6068229166666,161.79404406587346L522.2712864583334,93.57643979096429L523.4772083333334,136.64579711737667L523.9062552083333,125.73757173050893L524.21053125,75.44250298398418L524.2287760416666,134.51550179038983L524.519515625,87.7093544799954L524.5819010416667,103.37559933655768L524.826734375,182.77527949329243L524.9179583333333,186.6651543445351L525.24871875,132.99913266104232L525.7990052083334,149.79957305670902L526.1962708333333,186.12983729410848L526.797171875,151.9278489707033L527.280953125,164.65674943674355L528.0389947916667,154.79395620196303L528.1155052083333,136.62646718126092L528.3079583333333,99.47597376883914L528.9170989583333,96.4355842613038L531.158265625,143.61140396254407L532.5125,154.41676226888376L532.6425677083333,97.90013746997278L533.322921875,67.49010918486414L533.5483333333333,75.4940922137996L533.6101302083333,82.04645532827936L534.290484375,178.72785984552687L534.3128489583333,178.98678266451907L534.5064791666666,156.39208295015197L534.8796145833334,69.33518301288888L536.0743541666667,97.60101634765039L537.3679687499999,111.06056975426941L537.860578125,152.38639525832346L538.7033697916667,145.68177039779167L539.786875,78.65915569875739L540.9068697916667,83.9454934192546L541.7584895833332,104.61722929435103L543.16275,134.5204043338136L543.3810989583334,161.21217584308573L543.7265729166667,119.47731885729274L544.6558802083333,136.4363646114949L545.8264895833333,101.11188552409902L546.2490624999999,148.1671580173405L546.2661302083334,129.15024140464254L546.5327395833334,142.24011813990418L547.0900885416667,143.09415099258558L547.2436979166666,124.35646389267097L547.53796875,116.61379822695994L547.617421875,167.96834569337798L548.2253854166667,113.03098071314605L550.9950625,122.06852167068541L554.0419427083333,125.74107294808985L554.4639270833334,54.44472387749687L554.4809947916666,83.41682097505799L556.6480052083333,121.80015934223718L557.3189427083333,87.08004219958059L557.5072760416667,104.74798526542747L558.5619427083334,124.09881786213728L558.7237916666667,65.70938417736534L558.9927552083334,58.67569726362149L559.8508489583334,70.20544506105426L560.4776458333333,110.37318692798931L560.658328125,157.22388545391263L561.558796875,159.08430456946678L562.0996666666666,182.95060944456083L562.3627447916666,136.02032561241458L564.1695677083334,160.36215531312828L565.1230052083333,174.96725313355537L565.7851145833333,150.48041863733476L565.7904114583333,158.53817107375875L566.9886822916666,180.87295605001742L568.1228020833333,201.27372022424916L570.1444427083334,147.01419208022816L570.2209531249999,103.95843513949501L571.0766927083333,141.1250210293758L571.3468333333333,142.42509272626836L571.35271875,178.20500222999934L572.0348385416667,161.1729345807972L573.2554739583334,164.95368063983545L574.3260312499999,149.72219503246077L574.5596822916667,161.58338377667943L574.8380625,189.699976860246L575.122328125,203.0699861161473L575.3848177083333,177.8418982096055L575.9003802083333,174.95505881712117L575.9939583333334,218.7230619931538L576.2570364583333,255.48390395309428L577.4152864583333,170.79043583193894L577.6960208333334,203.97427485060425L577.7289791666667,220.38463166756512L578.7930625,205.7308190548601L579.3580625,135.68846473003572L579.8500833333334,142.66310554090217L580.239109375,47.0978099187796L580.8294166666667,80.75864589694692L581.8499479166667,81.70524094392965L582.020625,47.2731312149175L584.695546875,100.11394548615277L584.9980572916667,144.0684474003343L585.1652031250001,154.69098833155732L585.3135156249999,117.31457964749376L585.8014166666667,89.6388145456985L586.2022135416667,87.03334213318021L586.969671875,118.71995187414723L587.8601354166667,102.73205123313068L588.4728072916666,84.38924409131971L588.5428437500001,138.13357315767314L589.4550833333333,126.63023735468735L591.4278750000001,221.22808900705053L592.164140625,176.48694686431324L592.501375,205.64220817290968L593.7361354166667,196.885364958067L593.7632083333333,175.88129908348324L594.1934322916667,172.02872604432815L595.1562864583333,162.71728903235794L595.7460052083334,158.88040012229496L595.8342864583333,135.57818666761574L596.3098281250001,116.34693870345063L597.0001875,134.55813651918976L597.3750885416667,148.98480180287063L597.6887812499999,208.39082767596108L597.7264479166666,147.78450995701795L598.0554427083333,114.92066591988885L598.3302916666667,117.95241290337367L599.5362135416667,174.02143439058364L599.6992395833333,207.66284728290944L600.1877291666667,166.597628261103L601.2423958333334,162.95857695666245L601.7455989583333,180.0250527139138L602.0004375,193.76508503411026L602.146984375,154.7590243175854L602.29,218.85545464487313L602.4753906249999,222.31324608404347L602.6119322916667,219.13800105618824L604.3634322916666,234.73278728227257L605.7058958333333,172.3397524780066L606.0660833333333,239.90393159544695L608.9052083333333,252.44226549718542L608.9499375,207.46526583822813L609.6608958333334,152.47909274573465L610.4218802083334,126.48748235032235L610.6160989583333,77.64242265299163L611.0239583333333,95.58546694323547L611.603671875,143.10133357170292L612.6989479166666,190.86076008870052L613.3910729166666,160.0165228104218L613.6158958333334,134.50988698337252L614.036703125,162.95583872994004L615.1360989583334,157.27355664372544L615.4892239583334,220.36417404055697L616.3049427083333,245.96853112721547L616.4191197916666,242.08103856768696L617.5126302083333,230.9986765463738L617.6144479166667,185.84924598214567L618.3501249999999,164.00950753496696L618.6991302083334,170.15577127818278L620.011578125,107.3435428755522L620.1834322916667,141.40611237389078L621.2904791666666,98.84361401857285L621.4140729166667,164.30612835682268L621.7895625,166.83359690545075L622.3475,173.60019819759145L623.9183177083333,230.16015897287676L624.3762031250001,229.09606868084526L626.0029322916666,181.20773466859026L626.5997135416667,136.72457404395217L626.798640625,71.53466431772927L626.876328125,34.17089205071994L629.1881197916667,50.252441770349435L629.6677812500001,72.15138495356723L629.9832395833333,95.79079091781932L630.7565833333334,73.22439444204969L631.4975572916667,140.18473012531254L632.8859270833334,182.1109048323899L632.9335989583334,175.76648949367248L634.5503229166667,168.45989369620378L635.037046875,221.82585610907955L635.5820364583333,204.84558042265016L635.707984375,203.40728149638858L635.7262291666666,204.29427543774946L636.0575781250001,203.0764985054478L636.6060989583333,137.59581899462682L636.92096875,136.8074246395733L637.0987083333333,103.08449483806578L637.1793385416667,102.10064349707744L637.2481979166666,89.26031934104407L638.1545520833333,195.30619160462612L638.19575,236.1836615570136L638.6047864583334,173.21027704285066L638.70425,170.42611281994917L638.8513854166666,79.50557423188684L639.023828125,129.9532510790488L639.4057916666667,118.2218972416673L639.903109375,116.43320510220263L641.0766614583333,141.609989818524L642.6604270833334,111.2159538367934L643.0017812499999,154.22959900495735L643.1047760416667,176.53783951161725L643.5373541666667,210.9226636526497L643.8804739583334,168.55351808294697L644.6373385416667,134.38216425553037L645.3247552083333,103.37931190475877L645.7708697916667,128.52753373709402L646.2128645833333,150.61656029657703L646.4806510416666,214.62000293514842L646.845546875,312.52196170676734L647.3923020833333,222.5132037269412L647.3958333333333,117.75792223616429" style="fill: none;" fill="none"></path></g></g></g></g><g opacity="0.2"><g><g><g><path stroke="rgb(255, 112, 67)" stroke-width="2px" d="M65.27221354166666,577.5001001358031L65.30811458333334,275.62520027160656L65.898421875,494.37486648559565L68.33910416666667,529.3748331069945L70.413125,328.12489986419683L70.66148958333333,350.0000667572022L70.94222395833334,450.6250333786011L70.96517708333333,420L71.128203125,336.87476634979254L71.40128645833333,389.3749666213989L71.99630208333333,358.7499332427979L72.80319270833334,411.2501335144043L73.06568229166666,350.0000667572022L73.16867708333334,424.37493324279785L73.40703645833334,196.87489986419698L73.716609375,367.4997997283936L76.40977604166666,380.6251001358033L76.87060416666667,385.00003337860113L76.92592708333333,249.37510013580336L77.64983333333333,472.5002002716064L77.943515625,188.1250333786013L78.38256770833333,310.6251668930055L78.716859375,227.49993324279802L78.73804687500001,293.12493324279797L78.769828125,358.7499332427979L79.17356770833334,415.62506675720215L80.411859375,503.12523365020746L80.429515625,301.87479972839367L81.07985416666666,420L81.14577083333333,367.4997997283936L81.6425,245.0001668930055L81.713125,590.6248998641965L83.14386979166667,271.2497663497926L84.53753645833334,258.12496662139904L84.74588020833333,144.37520027160667L84.86770833333334,411.2501335144043L85.55747916666667,354.37500000000006L86.12365625,170.62479972839375L86.17015104166667,336.87476634979254L86.95349999999999,262.4998998641969L87.21069270833334,236.24979972839373L89.99155208333333,371.8752336502076L90.55419791666667,323.74996662139904L92.11913020833333,323.74996662139904L93.42863541666667,341.2502002716065L94.27201562500001,288.7500000000001L94.44622395833333,354.37500000000006L95.42555729166666,367.4997997283936L96.327203125,476.87513351440424L96.82746354166667,210.00020027160662L97.48780729166667,284.37506675720226L98.16109895833333,354.37500000000006L98.29881770833333,323.74996662139904L98.54541666666667,231.87486648559587L99.57242187499999,441.87516689300537L100.43816666666666,210.00020027160662L100.89252083333332,363.12486648559576L101.17384374999999,310.6251668930055L101.203859375,363.12486648559576L101.23622916666666,231.87486648559587L101.82300520833333,131.24989986419703L104.88283333333334,253.75003337860122L105.30187500000001,148.75013351440452L106.16703125,288.7500000000001L106.29827604166667,376.2501668930054L108.64538020833334,196.87489986419698L108.93258854166666,218.75006675720235L109.9278125,153.12506675720238L109.97783854166667,201.24983310699483L110.062,297.4998664855958L110.28858854166667,389.3749666213989L110.72646354166667,205.62476634979268L111.04251041666666,315.00010013580334L111.43859895833334,157.50000000000023L111.44801562500001,179.3751668930056L111.80702604166667,358.7499332427979L111.96240104166668,389.3749666213989L112.79224479166666,350.0000667572022L113.07062499999999,275.62520027160656L113.86574479166667,175.00023365020772L114.11881770833334,420L114.98750520833335,393.7498998641968L115.048125,87.50006675720243L115.53131770833333,153.12506675720238L116.81021874999999,148.75013351440452L117.6400625,166.2498664855959L118.21330208333335,118.1251001358035L118.49403645833334,481.2500667572021L118.85186979166666,153.12506675720238L119.474546875,280.0001335144044L120.25907291666667,310.6251668930055L120.58983333333333,293.12493324279797L120.6063125,148.75013351440452L121.10657291666668,336.87476634979254L122.320734375,170.62479972839375L122.76155208333334,393.7498998641968L124.372390625,175.00023365020772L124.59309375,245.0001668930055L125.30169791666667,39.374799728393896L126.59295833333333,153.12506675720238L126.84132291666667,315.00010013580334L127.543453125,231.87486648559587L127.741203125,516.250033378601L128.08726562500001,297.4998664855958L128.41390625,83.12513351440458L130.18070833333334,358.7499332427979L130.26310416666666,170.62479972839375L130.304890625,323.74996662139904L130.559140625,126.87496662139918L130.77690104166666,253.75003337860122L131.02938541666666,240.6252336502077L132.59255208333335,175.00023365020772L135.40636979166666,218.75006675720235L136.35333333333332,306.25023365020763L136.46868750000002,358.7499332427979L137.94004166666667,271.2497663497926L137.94769270833334,218.75006675720235L137.99771875000002,196.87489986419698L138.23490104166666,266.87483310699474L138.66924479166667,-109.37493324279734L139.291921875,428.7498664855957L139.29486458333332,144.37520027160667L139.51674479166667,367.4997997283936L140.898640625,266.87483310699474L140.92571354166668,262.4998998641969L141.23528645833335,179.3751668930056L141.28236979166667,271.2497663497926L141.69140625,205.62476634979268L141.83206770833334,236.24979972839373L141.96919791666667,218.75006675720235L142.9520625,135.62483310699488L143.73717708333334,69.99983310699497L143.77190104166667,363.12486648559576L144.964875,371.8752336502076L145.190875,293.12493324279797L145.658765625,249.37510013580336L146.354421875,236.24979972839373L147.58153125,336.87476634979254L147.643328125,223.12500000000017L147.74867708333335,284.37506675720226L147.88639583333335,161.8749332427981L148.76332291666668,227.49993324279802L150.189359375,319.3750333786012L151.05039583333334,87.50006675720243L151.33171875,78.75020027160673L151.62186979166665,-39.3749999999996L153.16914583333332,293.12493324279797L154.66227604166667,258.12496662139904L154.96066666666667,96.24993324279814L155.74107291666667,205.62476634979268L156.23603645833333,122.50003337860133L156.31490104166667,192.49996662139912L156.434375,48.12516689300571L157.27834375,126.87496662139918L157.3736875,183.75010013580345L157.51964583333333,415.62506675720215L158.50780729166667,196.87489986419698L158.88447395833333,240.6252336502077L159.01689583333334,74.37476634979276L159.882640625,166.2498664855959L159.88852604166667,201.24983310699483L160.65539583333333,139.99976634979274L160.72660937499998,227.49993324279802L160.99910416666665,131.24989986419703L161.641203125,262.4998998641969L163.48333854166665,153.12506675720238L163.7275833333333,301.87479972839367L164.003609375,122.50003337860133L164.02715104166666,148.75013351440452L164.31847916666666,284.37506675720226L164.97705729166668,148.75013351440452L165.409046875,201.24983310699483L165.44377083333333,223.12500000000017L166.019953125,183.75010013580345L166.52727604166668,310.6251668930055L166.71678645833333,188.1250333786013L166.90923958333332,192.49996662139912L167.76851041666666,135.62483310699488L168.45945833333334,166.2498664855959L168.96442708333333,153.12506675720238L168.99385416666667,91.87500000000028L169.46645312500002,43.75023365020786L170.27805208333334,223.12500000000017L170.87601041666665,43.75023365020786L171.980703125,306.25023365020763L173.79458854166666,376.2501668930054L173.85520833333334,175.00023365020772L173.98409895833333,109.3752336502078L174.63561458333334,192.49996662139912L175.886265625,78.75020027160673L176.14286979166667,118.1251001358035L176.68668229166667,240.6252336502077L177.38704687499998,122.50003337860133L177.6925,161.8749332427981L180.15848958333333,188.1250333786013L180.71171875000002,310.6251668930055L181.0407135416667,266.87483310699474L181.71106250000003,183.75010013580345L181.82053125,39.374799728393896L182.44085416666667,161.8749332427981L182.560328125,280.0001335144044L184.27180729166668,26.25000000000034L184.72380729166665,135.62483310699488L185.58484374999998,192.49996662139912L185.95150520833334,56.87503337860136L185.992703125,236.24979972839373L186.0097708333333,336.87476634979254L187.07797395833333,293.12493324279797L188.04730208333334,196.87489986419698L188.25152604166666,253.75003337860122L188.489296875,297.4998664855958L189.08078125,100.62486648559599L190.41500520833333,258.12496662139904L191.18481770833336,153.12506675720238L192.009953125,188.1250333786013L192.06763020833333,48.12516689300571L192.07469270833334,-0.00010013580288159574L192.695015625,122.50003337860133L193.14230729166664,-21.87476634979214L193.38478645833334,188.1250333786013L193.38655208333336,157.50000000000023L193.80088541666666,249.37510013580336L194.820828125,4.37483310699497L195.43114583333335,288.7500000000001L196.46050520833333,231.87486648559587L197.112609375,166.2498664855959L197.28799479166668,210.00020027160662L198.95474479166666,240.6252336502077L199.28903645833333,26.25000000000034L199.71455208333333,323.74996662139904L200.15948958333334,30.624933242798193L201.00522395833335,424.37493324279785L201.06290104166666,437.5002336502075L201.31891666666667,113.75016689300566L201.48194270833335,183.75010013580345L202.98802083333334,113.75016689300566L203.66484375,214.37513351440447L204.52234895833334,192.49996662139912L205.3775,-52.49979972839316L205.79889583333335,188.1250333786013L206.00370833333332,135.62483310699488L206.50102604166665,4.37483310699497L206.76586979166666,293.12493324279797L207.04660416666667,144.37520027160667L207.20551041666664,52.50010013580351L208.01357812499998,56.87503337860136L208.59211458333334,210.00020027160662L208.69746354166665,126.87496662139918L210.07700520833336,262.4998998641969L210.8197447916667,245.0001668930055L210.90390624999998,161.8749332427981L211.35178645833335,104.99979972839384L212.43588020833332,56.87503337860136L213.35341666666665,402.4997663497925L213.40403125,301.87479972839367L213.55410937500002,231.87486648559587L214.19797395833334,227.49993324279802L214.3539375,139.99976634979274L214.79416666666665,87.50006675720243L214.9777916666667,240.6252336502077L215.171421875,271.2497663497926L215.22615625,96.24993324279814L216.5227135416667,78.75020027160673L216.98766145833335,223.12500000000017L218.10942187499998,104.99979972839384L218.26715104166666,135.62483310699488L218.3795625,131.24989986419703L218.98046354166667,205.62476634979268L219.1399583333333,56.87503337860136L219.37949479166667,367.4997997283936L219.48955208333334,170.62479972839375L220.93971874999997,196.87489986419698L221.01269791666667,135.62483310699488L222.13857812499998,223.12500000000017L222.986078125,179.3751668930056L223.08554166666667,179.3751668930056L223.34038020833333,258.12496662139904L224.17787499999997,13.125200271606786L224.39740104166668,157.50000000000023L225.20546875000002,196.87489986419698L225.82696875000002,148.75013351440452L226.178328125,223.12500000000017L226.5214479166667,201.24983310699483L226.90458854166667,288.7500000000001L227.84978645833334,144.37520027160667L228.80145833333333,21.87506675720249L229.1569375,310.6251668930055L230.0115,205.62476634979268L231.78301041666668,-0.00010013580288159574L231.88600520833333,148.75013351440452L232.71408333333335,153.12506675720238L232.81119270833335,131.24989986419703L233.58100520833332,175.00023365020772L234.44616145833336,52.50010013580351L234.927,166.2498664855959L235.11356770833333,-61.250166893004916L235.906921875,188.1250333786013L236.493109375,144.37520027160667L236.8474114583333,175.00023365020772L236.88448958333333,306.25023365020763L237.78436979166668,131.24989986419703L240.366890625,87.50006675720243L240.62820312499997,236.24979972839373L240.71883854166666,210.00020027160662L241.15318229166667,148.75013351440452L241.25264583333333,78.75020027160673L241.26912499999997,83.12513351440458L242.26670312500002,262.4998998641969L242.923515625,240.6252336502077L243.82751562500002,196.87489986419698L244.34425520833335,91.87500000000028L246.0139479166667,341.2502002716065L246.25113020833334,126.87496662139918L246.4977291666667,231.87486648559587L246.66428645833335,65.62489986419712L246.85497395833335,139.99976634979274L247.15277604166667,43.75023365020786L247.35346875000002,87.50006675720243L247.69246875,61.24996662139927L248.00145312499998,210.00020027160662L248.5929375,109.3752336502078L248.9819635416667,118.1251001358035L249.72058333333334,139.99976634979274L249.94717187499998,196.87489986419698L250.1666979166667,424.37493324279785L252.51380208333333,175.00023365020772L253.100578125,135.62483310699488L253.2677239583333,135.62483310699488L253.64321354166668,323.74996662139904L254.03694791666666,-91.87520027160599L254.219984375,26.25000000000034L254.23587500000002,201.24983310699483L254.98979687500002,30.624933242798193L255.69074999999998,148.75013351440452L255.70781770833335,131.24989986419703L256.834875,183.75010013580345L257.03027083333336,87.50006675720243L258.1979375,183.75010013580345L258.2144166666667,262.4998998641969L258.30505208333335,205.62476634979268L259.99475520833334,61.24996662139927L260.76221354166665,144.37520027160667L261.60853645833333,153.12506675720238L261.62619270833335,56.87503337860136L261.73683854166666,196.87489986419698L262.06524479166666,-91.87520027160599L263.143453125,214.37513351440447L263.77495833333336,188.1250333786013L264.46355208333335,227.49993324279802L266.3904375,306.25023365020763L266.3933802083333,323.74996662139904L266.7300260416667,183.75010013580345L269.60093229166665,65.62489986419712L269.6474270833333,218.75006675720235L269.6674375,332.4998331069947L270.0270364583333,249.37510013580336L270.36544791666665,126.87496662139918L270.60557291666663,139.99976634979274L270.99342187499997,83.12513351440458L273.27990625,30.624933242798193L273.53651041666666,192.49996662139912L273.55298958333333,135.62483310699488L275.6234791666667,245.0001668930055L277.10719270833334,249.37510013580336L277.2766927083333,236.24979972839373L277.63099479166664,201.24983310699483L279.196515625,-61.250166893004916L279.471953125,210.00020027160662L279.58730729166666,310.6251668930055L279.88040104166663,26.25000000000034L280.90034375,-0.00010013580288159574L280.9527239583333,144.37520027160667L282.34344791666666,-13.12489986419638L282.39877083333334,109.3752336502078L282.724234375,170.62479972839375L282.8807864583333,17.500133514404638L283.4722708333333,205.62476634979268L284.2132447916667,371.8752336502076L284.33625,210.00020027160662L285.74109895833334,179.3751668930056L285.88646875,433.12479972839355L286.19074479166665,188.1250333786013L286.99998958333333,183.75010013580345L287.0370677083333,175.00023365020772L287.1977395833334,218.75006675720235L287.70153124999996,118.1251001358035L288.158828125,26.25000000000034L289.10402604166666,214.37513351440447L289.70551562500003,65.62489986419712L291.276921875,380.6251001358033L291.68478125,454.9999666213989L292.42222395833335,205.62476634979268L292.80536458333336,-61.250166893004916L293.05549479166666,78.75020027160673L293.2091041666667,139.99976634979274L293.8482604166667,13.125200271606786L294.38736458333335,56.87503337860136L296.10119791666665,175.00023365020772L296.27658333333335,118.1251001358035L296.743296875,210.00020027160662L297.71203645833333,113.75016689300566L298.69490104166664,74.37476634979276L298.94915104166665,201.24983310699483L300.896046875,100.62486648559599L301.3780625,135.62483310699488L302.28088541666665,306.25023365020763L303.108375,227.49993324279802L303.179,179.3751668930056L303.47327083333334,218.75006675720235L303.749296875,-4.375033378600676L304.37138541666667,100.62486648559599L304.60797916666667,345.62513351440435L304.7515833333333,-52.49979972839316L305.04761979166665,144.37520027160667L305.5631822916667,78.75020027160673L305.96397916666666,179.3751668930056L306.9427239583333,109.3752336502078L307.5165520833333,205.62476634979268L308.082140625,214.37513351440447L308.24987500000003,275.62520027160656L309.0055625,144.37520027160667L309.34809375,74.37476634979276L309.911328125,104.99979972839384L310.19441666666665,78.75020027160673L310.9024322916666,-65.62510013580282L311.0878229166667,153.12506675720238L312.00418229166667,157.50000000000023L312.35730729166664,131.24989986419703L313.1465416666666,192.49996662139912L313.26307291666666,454.9999666213989L314.81682291666664,161.8749332427981L315.17701041666663,205.62476634979268L315.26470312500004,258.12496662139904L315.58192708333337,284.37506675720226L316.8166875,139.99976634979274L317.12096354166664,74.37476634979276L319.13671875,188.1250333786013L319.159671875,306.25023365020763L319.36389583333334,17.500133514404638L319.60990625,52.50010013580351L320.0719114583333,192.49996662139912L320.681640625,170.62479972839375L320.96178645833334,170.62479972839375L322.228328125,126.87496662139918L322.75271875,328.12489986419683L322.8975,192.49996662139912L323.107609375,13.125200271606786L323.23944270833334,183.75010013580345L323.36303645833334,131.24989986419703L323.9521666666667,43.75023365020786L323.9715885416667,214.37513351440447L325.19752083333333,161.8749332427981L326.063265625,218.75006675720235L327.037890625,170.62479972839375L328.67050520833334,48.12516689300571L329.5721510416667,43.75023365020786L329.7987395833333,43.75023365020786L330.17422916666663,188.1250333786013L331.54494270833334,4.37483310699497L332.2453072916667,144.37520027160667L333.27348958333334,135.62483310699488L333.73902604166665,118.1251001358035L334.64479166666666,131.24989986419703L336.74,-166.2500667572017L336.9353958333333,336.87476634979254L337.02720833333336,-17.49983310699423L337.08959375,183.75010013580345L338.69454687499996,210.00020027160662L339.19127604166664,328.12489986419683L339.25836979166667,122.50003337860133L339.39020312499997,188.1250333786013L339.527921875,196.87489986419698L339.66034375,83.12513351440458L339.66622916666665,231.87486648559587L340.46429166666667,131.24989986419703L340.6108385416667,192.49996662139912L340.78857812499996,236.24979972839373L340.86096875,210.00020027160662L341.233515625,-4.375033378600676L341.5931145833333,135.62483310699488L342.028046875,175.00023365020772L342.12339062499996,170.62479972839375L344.26156249999997,205.62476634979268L344.2786302083333,39.374799728393896L344.34336979166665,236.24979972839373L345.1949895833333,161.8749332427981L346.3173385416667,48.12516689300571L347.54268229166667,148.75013351440452L349.7138125,227.49993324279802L352.46701041666665,192.49996662139912L352.60590625000003,126.87496662139918L353.5246197916667,131.24989986419703L353.9418958333334,83.12513351440458L354.0984479166667,30.624933242798193L355.54920312499996,-52.49979972839316L357.86099479166666,188.1250333786013L358.2641458333334,240.6252336502077L358.8732864583334,131.24989986419703L358.873875,-39.3749999999996L359.30115625,214.37513351440447L359.71019270833335,345.62513351440435L360.07449999999994,-148.74983310699406L360.6948229166667,126.87496662139918L361.6353125,210.00020027160662L362.2632864583333,183.75010013580345L362.3550989583334,131.24989986419703L362.9089166666667,43.75023365020786L363.09371875,131.24989986419703L363.95887500000003,131.24989986419703L364.21312500000005,175.00023365020772L364.3114114583333,100.62486648559599L366.986921875,144.37520027160667L367.21174479166666,56.87503337860136L367.9586041666667,48.12516689300571L368.2346302083334,69.99983310699497L369.6129947916666,210.00020027160662L370.1132552083334,223.12500000000017L370.189765625,214.37513351440447L370.36632812499994,363.12486648559576L370.4357760416667,214.37513351440447L370.5240572916666,328.12489986419683L371.0201979166667,205.62476634979268L371.093765625,113.75016689300566L371.85474999999997,96.24993324279814L372.35089062500003,253.75003337860122L372.492140625,52.50010013580351L372.80053645833334,240.6252336502077L373.28490625,135.62483310699488L373.54386458333335,144.37520027160667L374.44845312499996,301.87479972839367L374.68916666666667,39.374799728393896L374.8786770833333,126.87496662139918L376.6284114583333,91.87500000000028L377.63599479166663,183.75010013580345L378.15038020833333,144.37520027160667L378.8901770833333,293.12493324279797L379.6911822916666,74.37476634979276L380.93123958333337,179.3751668930056L381.1007395833334,21.87506675720249L381.6351354166667,406.87520027160645L382.23603645833333,-43.7499332427974L382.392,109.3752336502078L384.49780208333334,161.8749332427981L385.3023385416667,188.1250333786013L386.4029114583334,218.75006675720235L386.63185416666664,135.62483310699488L386.691296875,210.00020027160662L386.956140625,223.12500000000017L387.406375,148.75013351440452L387.4440416666667,-0.00010013580288159574L387.8012864583334,271.2497663497926L387.9372395833333,188.1250333786013L387.99844791666663,61.24996662139927L388.072015625,34.999866485596044L388.40571875,144.37520027160667L389.9194479166667,236.24979972839373L390.5091666666667,8.749766349792822L391.1183072916667,253.75003337860122L391.34371875,131.24989986419703L391.4455364583333,301.87479972839367L391.58384375,126.87496662139918L391.94638541666666,196.87489986419698L392.2995104166667,161.8749332427981L392.92571875000004,179.3751668930056L393.00988020833336,118.1251001358035L393.6925885416667,17.500133514404638L393.84855208333335,113.75016689300566L394.4624010416666,122.50003337860133L396.15445833333337,249.37510013580336L396.70415625,8.749766349792822L397.3715625,153.12506675720238L398.7110833333333,48.12516689300571L398.92884375,131.24989986419703L400.07002604166667,104.99979972839384L400.994625,271.2497663497926L401.2841875,170.62479972839375L402.048703125,8.749766349792822L402.3359114583333,350.0000667572022L402.9750677083333,402.4997663497925L403.26874999999995,157.50000000000023L403.514171875,153.12506675720238L403.5948020833333,34.999866485596044L404.20041145833335,-30.6251335144039L404.56766145833336,153.12506675720238L405.23094791666665,122.50003337860133L405.622328125,227.49993324279802L405.64292708333335,148.75013351440452L405.68765625,43.75023365020786L405.94896874999995,262.4998998641969L406.37566145833335,157.50000000000023L406.38978645833333,201.24983310699483L408.21308854166665,153.12506675720238L409.8109791666667,122.50003337860133L411.862046875,179.3751668930056L411.87264062500003,367.4997997283936L412.165734375,196.87489986419698L412.81136458333333,144.37520027160667L414.4039583333333,253.75003337860122L414.4392708333333,-61.250166893004916L415.98007291666664,122.50003337860133L417.1365572916667,52.50010013580351L417.3560833333333,188.1250333786013L418.1353125,236.24979972839373L418.310109375,100.62486648559599L419.30239062500004,227.49993324279802L420.7578541666667,65.62489986419712L421.54708854166665,310.6251668930055L422.23450520833336,319.3750333786012L425.56859375,258.12496662139904L425.7563385416667,83.12513351440458L425.849328125,83.12513351440458L426.45552604166664,109.3752336502078L426.95519791666663,153.12506675720238L427.237109375,192.49996662139912L427.74148958333336,170.62479972839375L430.19394270833334,144.37520027160667L430.4140572916666,96.24993324279814L431.2197708333333,188.1250333786013L431.4699010416667,175.00023365020772L433.03130208333334,192.49996662139912L435.2871822916666,266.87483310699474L435.31013541666664,139.99976634979274L436.425421875,157.50000000000023L436.5955104166667,-0.00010013580288159574L437.25055729166667,319.3750333786012L437.3388385416667,245.0001668930055L438.533578125,240.6252336502077L438.73368229166664,166.2498664855959L439.186859375,214.37513351440447L439.20098437499996,411.2501335144043L439.84308333333337,240.6252336502077L440.092625,183.75010013580345L440.8524322916667,166.2498664855959L441.7729114583333,-30.6251335144039L442.562734375,113.75016689300566L443.57561458333333,310.6251668930055L443.61445833333335,126.87496662139918L444.2589114583334,-8.749966621398528L444.9221979166667,43.75023365020786L445.29886458333334,-56.87523365020712L446.026890625,183.75010013580345L446.3523541666667,297.4998664855958L446.46888541666664,100.62486648559599L446.803765625,227.49993324279802L447.3593489583334,-0.00010013580288159574L448.7606666666667,166.2498664855959L449.2020729166667,91.87500000000028L449.339203125,122.50003337860133L450.2914635416667,157.50000000000023L450.40446354166664,113.75016689300566L450.7346354166667,157.50000000000023L451.52269270833335,166.2498664855959L451.599203125,109.3752336502078L451.66923958333336,153.12506675720238L451.70572916666663,118.1251001358035L451.7663489583333,175.00023365020772L452.04002083333336,166.2498664855959L452.25425,227.49993324279802L452.72449479166664,109.3752336502078L454.614890625,218.75006675720235L456.96729166666665,183.75010013580345L457.5275833333333,223.12500000000017L458.30445833333334,175.00023365020772L459.8929322916666,100.62486648559599L460.1789635416667,192.49996662139912L460.197796875,262.4998998641969L461.6603229166667,266.87483310699474L461.83806250000004,122.50003337860133L462.184125,-30.6251335144039L462.36775,266.87483310699474L462.761484375,153.12506675720238L463.3129479166667,205.62476634979268L463.59309375,61.24996662139927L463.8838333333333,126.87496662139918L464.20341145833333,122.50003337860133L464.3693802083333,144.37520027160667L466.2226979166667,196.87489986419698L466.2533020833333,275.62520027160656L466.29214583333334,201.24983310699483L466.9642604166667,157.50000000000023L467.12728645833334,100.62486648559599L467.32974479166666,166.2498664855959L467.61871875,170.62479972839375L467.73113020833335,65.62489986419712L467.82941666666665,210.00020027160662L468.919984375,78.75020027160673L469.60445833333335,74.37476634979276L469.76513020833335,-48.124866485595305L470.6032135416667,56.87503337860136L471.04520833333333,157.50000000000023L471.17115624999997,284.37506675720226L473.143359375,240.6252336502077L473.4552864583333,118.1251001358035L473.48706770833337,83.12513351440458L474.38165104166666,113.75016689300566L475.31390104166667,13.125200271606786L476.5451302083333,104.99979972839384L476.64459375,4.37483310699497L476.80703124999997,61.24996662139927L477.806375,148.75013351440452L478.5626510416667,126.87496662139918L479.09528124999997,91.87500000000028L479.5461041666666,52.50010013580351L479.9345416666667,240.6252336502077L480.2547083333333,30.624933242798193L480.71259375,-13.12489986419638L481.20049479166664,223.12500000000017L481.5748072916667,78.75020027160673L481.9944375,96.24993324279814L482.05152604166665,118.1251001358035L482.24456770833336,17.500133514404638L482.58827604166663,118.1251001358035L484.64052083333337,166.2498664855959L485.0213072916667,43.75023365020786L485.5033229166667,266.87483310699474L486.7080677083333,74.37476634979276L487.2348125,39.374799728393896L487.27777604166664,179.3751668930056L487.6615052083333,139.99976634979274L487.9740208333333,183.75010013580345L487.9834375,144.37520027160667L488.032875,297.4998664855958L489.3353177083333,183.75010013580345L489.6849114583333,126.87496662139918L490.5836145833333,240.6252336502077L490.85846354166665,218.75006675720235L491.8842916666667,69.99983310699497L491.94844270833335,175.00023365020772L492.5640572916667,293.12493324279797L492.6388020833333,-26.250200271606104L493.76703645833334,188.1250333786013L494.7981614583333,188.1250333786013L495.505,166.2498664855959L495.59033854166665,78.75020027160673L496.51258333333334,196.87489986419698L496.99283333333335,100.62486648559599L497.14291145833334,284.37506675720226L497.3341875,113.75016689300566L499.46765104166667,201.24983310699483L500.302203125,48.12516689300571L500.3098541666667,43.75023365020786L500.3651770833333,122.50003337860133L500.61589583333335,188.1250333786013L500.90781250000003,126.87496662139918L500.92841145833336,65.62489986419712L501.21032291666666,161.8749332427981L501.60758854166664,139.99976634979274L502.15905208333334,74.37476634979276L502.18318229166664,13.125200271606786L502.2008385416667,205.62476634979268L503.90113541666665,262.4998998641969L504.02590625,196.87489986419698L504.2083541666667,118.1251001358035L504.33724479166665,301.87479972839367L504.3743229166667,96.24993324279814L504.77276562500003,48.12516689300571L505.0011197916667,157.50000000000023L506.266484375,196.87489986419698L506.9768541666667,157.50000000000023L507.81022916666666,104.99979972839384L508.15746875,109.3752336502078L508.8860833333333,157.50000000000023L509.43872395833336,-26.250200271606104L510.1255520833333,153.12506675720238L510.4733802083333,227.49993324279802L511.0042447916667,139.99976634979274L512.0524375,350.0000667572022L512.356125,153.12506675720238L512.80459375,240.6252336502077L513.53203125,122.50003337860133L514.3165572916666,34.999866485596044L514.543734375,153.12506675720238L516.673078125,144.37520027160667L516.7448802083333,39.374799728393896L517.31046875,91.87500000000028L518.2009322916667,227.49993324279802L518.26390625,293.12493324279797L518.4216354166666,131.24989986419703L521.6068229166666,139.99976634979274L522.2712864583334,-8.749966621398528L523.4772083333334,201.24983310699483L523.9062552083333,109.3752336502078L524.21053125,-0.00010013580288159574L524.2287760416666,223.12500000000017L524.519515625,17.500133514404638L524.5819010416667,126.87496662139918L524.826734375,301.87479972839367L524.9179583333333,192.49996662139912L525.24871875,52.50010013580351L525.7990052083334,175.00023365020772L526.1962708333333,240.6252336502077L526.797171875,100.62486648559599L527.280953125,183.75010013580345L528.0389947916667,139.99976634979274L528.1155052083333,109.3752336502078L528.3079583333333,43.75023365020786L528.9170989583333,91.87500000000028L531.158265625,214.37513351440447L532.5125,170.62479972839375L532.6425677083333,13.125200271606786L533.322921875,21.87506675720249L533.5483333333333,87.50006675720243L533.6101302083333,91.87500000000028L534.290484375,323.74996662139904L534.3128489583333,179.3751668930056L534.5064791666666,122.50003337860133L534.8796145833334,-61.250166893004916L536.0743541666667,139.99976634979274L537.3679687499999,131.24989986419703L537.860578125,214.37513351440447L538.7033697916667,135.62483310699488L539.786875,-21.87476634979214L540.9068697916667,91.87500000000028L541.7584895833332,135.62483310699488L543.16275,179.3751668930056L543.3810989583334,201.24983310699483L543.7265729166667,56.87503337860136L544.6558802083333,161.8749332427981L545.8264895833333,48.12516689300571L546.2490624999999,218.75006675720235L546.2661302083334,100.62486648559599L546.5327395833334,161.8749332427981L547.0900885416667,144.37520027160667L547.2436979166666,96.24993324279814L547.53796875,104.99979972839384L547.617421875,245.0001668930055L548.2253854166667,30.624933242798193L550.9950625,135.62483310699488L554.0419427083333,131.24989986419703L554.4639270833334,-52.49979972839316L554.4809947916666,126.87496662139918L556.6480052083333,179.3751668930056L557.3189427083333,34.999866485596044L557.5072760416667,131.24989986419703L558.5619427083334,153.12506675720238L558.7237916666667,-21.87476634979214L558.9927552083334,48.12516689300571L559.8508489583334,87.50006675720243L560.4776458333333,170.62479972839375L560.658328125,227.49993324279802L561.558796875,161.8749332427981L562.0996666666666,218.75006675720235L562.3627447916666,65.62489986419712L564.1695677083334,196.87489986419698L565.1230052083333,196.87489986419698L565.7851145833333,113.75016689300566L565.7904114583333,170.62479972839375L566.9886822916666,214.37513351440447L568.1228020833333,231.87486648559587L570.1444427083334,65.62489986419712L570.2209531249999,39.374799728393896L571.0766927083333,196.87489986419698L571.3468333333333,144.37520027160667L571.35271875,231.87486648559587L572.0348385416667,135.62483310699488L573.2554739583334,170.62479972839375L574.3260312499999,126.87496662139918L574.5596822916667,179.3751668930056L574.8380625,231.87486648559587L575.122328125,223.12500000000017L575.3848177083333,139.99976634979274L575.9003802083333,170.62479972839375L575.9939583333334,284.37506675720226L576.2570364583333,310.6251668930055L577.4152864583333,43.75023365020786L577.6960208333334,253.75003337860122L577.7289791666667,245.0001668930055L578.7930625,183.75010013580345L579.3580625,30.624933242798193L579.8500833333334,153.12506675720238L580.239109375,-96.25013351440384L580.8294166666667,131.24989986419703L581.8499479166667,83.12513351440458L582.020625,-4.375033378600676L584.695546875,179.3751668930056L584.9980572916667,210.00020027160662L585.1652031250001,170.62479972839375L585.3135156249999,61.24996662139927L585.8014166666667,48.12516689300571L586.2022135416667,83.12513351440458L586.969671875,166.2498664855959L587.8601354166667,78.75020027160673L588.4728072916666,56.87503337860136L588.5428437500001,218.75006675720235L589.4550833333333,109.3752336502078L591.4278750000001,363.12486648559576L592.164140625,109.3752336502078L592.501375,249.37510013580336L593.7361354166667,183.75010013580345L593.7632083333333,144.37520027160667L594.1934322916667,166.2498664855959L595.1562864583333,148.75013351440452L595.7460052083334,153.12506675720238L595.8342864583333,100.62486648559599L596.3098281250001,87.50006675720243L597.0001875,161.8749332427981L597.3750885416667,170.62479972839375L597.6887812499999,297.4998664855958L597.7264479166666,56.87503337860136L598.0554427083333,65.62489986419712L598.3302916666667,122.50003337860133L599.5362135416667,258.12496662139904L599.6992395833333,258.12496662139904L600.1877291666667,104.99979972839384L601.2423958333334,157.50000000000023L601.7455989583333,205.62476634979268L602.0004375,214.37513351440447L602.146984375,96.24993324279814L602.29,315.00010013580334L602.4753906249999,227.49993324279802L602.6119322916667,214.37513351440447L604.3634322916666,258.12496662139904L605.7058958333333,78.75020027160673L606.0660833333333,341.2502002716065L608.9052083333333,271.2497663497926L608.9499375,139.99976634979274L609.6608958333334,69.99983310699497L610.4218802083334,87.50006675720243L610.6160989583333,4.37483310699497L611.0239583333333,122.50003337860133L611.603671875,214.37513351440447L612.6989479166666,262.4998998641969L613.3910729166666,113.75016689300566L613.6158958333334,96.24993324279814L614.036703125,205.62476634979268L615.1360989583334,148.75013351440452L615.4892239583334,315.00010013580334L616.3049427083333,284.37506675720226L616.4191197916666,236.24979972839373L617.5126302083333,214.37513351440447L617.6144479166667,118.1251001358035L618.3501249999999,131.24989986419703L618.6991302083334,179.3751668930056L620.011578125,13.125200271606786L620.1834322916667,192.49996662139912L621.2904791666666,34.999866485596044L621.4140729166667,262.4998998641969L621.7895625,170.62479972839375L622.3475,183.75010013580345L623.9183177083333,315.00010013580334L624.3762031250001,227.49993324279802L626.0029322916666,109.3752336502078L626.5997135416667,69.99983310699497L626.798640625,-26.250200271606104L626.876328125,-21.87476634979214L629.1881197916667,74.37476634979276L629.6677812500001,104.99979972839384L629.9832395833333,131.24989986419703L630.7565833333334,39.374799728393896L631.4975572916667,240.6252336502077L632.8859270833334,245.0001668930055L632.9335989583334,166.2498664855959L634.5503229166667,157.50000000000023L635.037046875,301.87479972839367L635.5820364583333,179.3751668930056L635.707984375,201.24983310699483L635.7262291666666,205.62476634979268L636.0575781250001,201.24983310699483L636.6060989583333,39.374799728393896L636.92096875,135.62483310699488L637.0987083333333,52.50010013580351L637.1793385416667,100.62486648559599L637.2481979166666,69.99983310699497L638.1545520833333,354.37500000000006L638.19575,297.4998664855958L638.6047864583334,78.75020027160673L638.70425,166.2498664855959L638.8513854166666,-56.87523365020712L639.023828125,205.62476634979268L639.4057916666667,100.62486648559599L639.903109375,113.75016689300566L641.0766614583333,179.3751668930056L642.6604270833334,65.62489986419712L643.0017812499999,218.75006675720235L643.1047760416667,210.00020027160662L643.5373541666667,262.4998998641969L643.8804739583334,104.99979972839384L644.6373385416667,83.12513351440458L645.3247552083333,56.87503337860136L645.7708697916667,166.2498664855959L646.2128645833333,183.75010013580345L646.4806510416666,310.6251668930055L646.845546875,459.3748998641967L647.3923020833333,87.50006675720243L647.3958333333333,-39.3749999999996" style="fill: none;" fill="none"></path></g></g></g></g></g></g><g transform="translate(70, 378)" clip-path="url(#clip_1)"><clipPath id="clip_1"><rect width="706" height="22"></rect></clipPath><g><g><line x1="0" y1="0" x2="0" y2="5" style="visibility: inherit;" fill="rgb(0, 0, 0)" stroke="rgb(204, 204, 204)" stroke-width="1px"></line><line x1="58.854166666666664" y1="0" x2="58.854166666666664" y2="5" style="visibility: inherit;" fill="rgb(0, 0, 0)" stroke="rgb(204, 204, 204)" stroke-width="1px"></line><line x1="117.70833333333333" y1="0" x2="117.70833333333333" y2="5" style="visibility: inherit;" fill="rgb(0, 0, 0)" stroke="rgb(204, 204, 204)" stroke-width="1px"></line><line x1="176.5625" y1="0" x2="176.5625" y2="5" style="visibility: inherit;" fill="rgb(0, 0, 0)" stroke="rgb(204, 204, 204)" stroke-width="1px"></line><line x1="235.41666666666666" y1="0" x2="235.41666666666666" y2="5" style="visibility: inherit;" fill="rgb(0, 0, 0)" stroke="rgb(204, 204, 204)" stroke-width="1px"></line><line x1="294.27083333333337" y1="0" x2="294.27083333333337" y2="5" style="visibility: inherit;" fill="rgb(0, 0, 0)" stroke="rgb(204, 204, 204)" stroke-width="1px"></line><line x1="353.125" y1="0" x2="353.125" y2="5" style="visibility: inherit;" fill="rgb(0, 0, 0)" stroke="rgb(204, 204, 204)" stroke-width="1px"></line><line x1="411.9791666666667" y1="0" x2="411.9791666666667" y2="5" style="visibility: inherit;" fill="rgb(0, 0, 0)" stroke="rgb(204, 204, 204)" stroke-width="1px"></line><line x1="470.8333333333333" y1="0" x2="470.8333333333333" y2="5" style="visibility: inherit;" fill="rgb(0, 0, 0)" stroke="rgb(204, 204, 204)" stroke-width="1px"></line><line x1="529.6875" y1="0" x2="529.6875" y2="5" style="visibility: inherit;" fill="rgb(0, 0, 0)" stroke="rgb(204, 204, 204)" stroke-width="1px"></line><line x1="588.5416666666667" y1="0" x2="588.5416666666667" y2="5" style="visibility: inherit;" fill="rgb(0, 0, 0)" stroke="rgb(204, 204, 204)" stroke-width="1px"></line><line x1="647.3958333333333" y1="0" x2="647.3958333333333" y2="5" style="visibility: inherit;" fill="rgb(0, 0, 0)" stroke="rgb(204, 204, 204)" stroke-width="1px"></line><line x1="706.25" y1="0" x2="706.25" y2="5" style="visibility: inherit;" fill="rgb(0, 0, 0)" stroke="rgb(204, 204, 204)" stroke-width="1px"></line></g><g transform="translate(0, 8)"><text x="0" y="0" dx="0em" dy="0.95em" style="text-anchor: middle; visibility: hidden; font-family: &quot;Helvetica Neue&quot;, sans-serif; font-size: 12px; font-weight: 200;" fill="rgb(50, 49, 63)" stroke="none" stroke-width="1px">-100k</text><text x="58.854166666666664" y="0" dx="0em" dy="0.95em" style="text-anchor: middle; visibility: inherit; font-family: &quot;Helvetica Neue&quot;, sans-serif; font-size: 12px; font-weight: 200;" fill="rgb(50, 49, 63)" stroke="none" stroke-width="1px">0</text><text x="117.70833333333333" y="0" dx="0em" dy="0.95em" style="text-anchor: middle; visibility: inherit; font-family: &quot;Helvetica Neue&quot;, sans-serif; font-size: 12px; font-weight: 200;" fill="rgb(50, 49, 63)" stroke="none" stroke-width="1px">100k</text><text x="176.5625" y="0" dx="0em" dy="0.95em" style="text-anchor: middle; visibility: inherit; font-family: &quot;Helvetica Neue&quot;, sans-serif; font-size: 12px; font-weight: 200;" fill="rgb(50, 49, 63)" stroke="none" stroke-width="1px">200k</text><text x="235.41666666666666" y="0" dx="0em" dy="0.95em" style="text-anchor: middle; visibility: inherit; font-family: &quot;Helvetica Neue&quot;, sans-serif; font-size: 12px; font-weight: 200;" fill="rgb(50, 49, 63)" stroke="none" stroke-width="1px">300k</text><text x="294.27083333333337" y="0" dx="0em" dy="0.95em" style="text-anchor: middle; visibility: inherit; font-family: &quot;Helvetica Neue&quot;, sans-serif; font-size: 12px; font-weight: 200;" fill="rgb(50, 49, 63)" stroke="none" stroke-width="1px">400k</text><text x="353.125" y="0" dx="0em" dy="0.95em" style="text-anchor: middle; visibility: inherit; font-family: &quot;Helvetica Neue&quot;, sans-serif; font-size: 12px; font-weight: 200;" fill="rgb(50, 49, 63)" stroke="none" stroke-width="1px">500k</text><text x="411.9791666666667" y="0" dx="0em" dy="0.95em" style="text-anchor: middle; visibility: inherit; font-family: &quot;Helvetica Neue&quot;, sans-serif; font-size: 12px; font-weight: 200;" fill="rgb(50, 49, 63)" stroke="none" stroke-width="1px">600k</text><text x="470.8333333333333" y="0" dx="0em" dy="0.95em" style="text-anchor: middle; visibility: inherit; font-family: &quot;Helvetica Neue&quot;, sans-serif; font-size: 12px; font-weight: 200;" fill="rgb(50, 49, 63)" stroke="none" stroke-width="1px">700k</text><text x="529.6875" y="0" dx="0em" dy="0.95em" style="text-anchor: middle; visibility: inherit; font-family: &quot;Helvetica Neue&quot;, sans-serif; font-size: 12px; font-weight: 200;" fill="rgb(50, 49, 63)" stroke="none" stroke-width="1px">800k</text><text x="588.5416666666667" y="0" dx="0em" dy="0.95em" style="text-anchor: middle; visibility: inherit; font-family: &quot;Helvetica Neue&quot;, sans-serif; font-size: 12px; font-weight: 200;" fill="rgb(50, 49, 63)" stroke="none" stroke-width="1px">900k</text><text x="647.3958333333333" y="0" dx="0em" dy="0.95em" style="text-anchor: middle; visibility: inherit; font-family: &quot;Helvetica Neue&quot;, sans-serif; font-size: 12px; font-weight: 200;" fill="rgb(50, 49, 63)" stroke="none" stroke-width="1px">1M</text><text x="706.25" y="0" dx="0em" dy="0.95em" style="text-anchor: middle; visibility: hidden; font-family: &quot;Helvetica Neue&quot;, sans-serif; font-size: 12px; font-weight: 200;" fill="rgb(50, 49, 63)" stroke="none" stroke-width="1px">1.1M</text></g><line x1="0" y1="0" x2="706.25" y2="0" fill="rgb(0, 0, 0)" stroke="rgb(204, 204, 204)" stroke-width="1px"></line></g></g></g></g></svg>